<svg width="145" height="131" viewBox="0 0 145 131" fill="none" xmlns="http://www.w3.org/2000/svg">
<path d="M12.5072 118.149C12.1302 108.495 12.0722 108.319 8.76616 106.812C0.950664 103.239 2.03091 88.8478 10.7019 81.0709C12.9277 79.0698 12.9277 79.0699 12.1664 68.6422C11.0644 53.5952 14.7112 37.6061 19.8152 35.0983C22.2584 33.8964 22.1279 35.5531 19.2497 42.6543C16.0524 50.5091 16.0524 50.5091 19.5324 53.4653C21.3667 55.0245 22.6862 56.8957 23.2082 58.6628C23.9694 61.2551 24.3029 61.528 28.4644 62.9898C34.8444 65.2313 35.6637 65.0234 32.4447 61.9763C25.8617 55.7522 32.4157 48.5276 41.5869 51.906C44.7842 53.0884 44.7842 53.0884 49.8954 48.7809C53.4552 45.7858 55.7969 44.337 57.5949 44.0316C62.0174 43.2715 61.7129 44.9217 56.8627 47.9558C54.4992 49.4371 51.4107 51.88 49.9969 53.3743C47.1187 56.4409 45.2844 56.7722 40.2819 55.1415C36.5844 53.933 34.0759 54.7127 34.0759 57.0646C34.0759 59.41 37.2007 61.0862 43.7982 62.2687C49.0399 63.2172 49.7504 63.5356 52.1357 66.0369C57.0584 71.202 58.0299 71.2995 62.4959 67.0894C72.0224 58.0911 84.6882 62.3466 84.3184 74.4245C84.1444 80.0119 85.1522 81.5452 88.2552 80.4147C89.9952 79.778 90.0822 79.5311 89.7197 76.2047C89.4514 73.7358 89.7414 71.4944 90.6984 68.7721C91.6482 66.0434 92.0614 62.8989 92.0687 58.273C92.0759 49.9569 92.4529 49.2942 98.0789 47.553C101.762 46.416 103.328 45.4415 106.634 42.206C110.672 38.2558 110.672 38.2558 116.965 38.4377C122.163 38.5872 123.251 38.4507 123.251 37.6386C123.251 35.4491 113.275 24.4043 108.207 20.9804C103.132 17.5565 103.132 17.5565 98.5139 20.2267C93.6854 23.0139 91.6989 24.898 89.2774 28.9781C86.3847 33.8444 80.7877 31.8303 79.0622 25.3074C77.9022 20.9414 74.7847 18.0892 69.3037 16.361C66.8024 15.5749 64.0257 14.139 62.8947 13.0541C61.1547 11.3713 60.5312 11.1764 57.9864 11.4753C49.4967 12.4758 43.0514 27.2694 50.0042 29.7903C51.6862 30.401 51.8964 30.2321 53.4117 27.1265C55.8114 22.1953 57.1527 21.4806 62.9454 22.0459C70.6449 22.793 71.4279 23.3713 74.4149 30.4595C77.5542 37.8855 77.2424 39.6917 72.5082 41.5368C67.6072 43.4404 65.5482 42.3164 69.2384 39.7501C72.9432 37.1708 73.0592 36.4042 70.5652 30.9987C68.5424 26.6003 68.4627 26.5288 64.8884 25.7167C59.8497 24.5667 58.7042 25.093 56.4277 29.5824C51.5049 39.2824 40.1659 31.512 43.9287 21.0194C44.7624 18.6999 45.1684 16.6859 44.8349 16.5494C43.6967 16.0946 35.9029 21.2662 30.8134 25.8596C25.8617 30.323 25.7239 30.401 25.0134 28.9002C22.2584 23.0594 47.3579 9.05841 64.3882 6.94689C104.321 1.9897 135.489 29.8357 132.843 68.103C132.081 79.1283 132.081 79.1283 135.206 82.1884C143.159 89.9653 143.819 103.343 136.41 106.727C132.864 108.352 132.676 108.826 132.676 115.979C132.676 125.465 133.415 125.146 111.397 125.172C90.0894 125.192 90.4302 125.302 89.3354 118.299C88.2987 111.62 85.3987 112.633 84.5867 119.962C84.0792 124.523 81.8824 125.413 71.5439 125.237C62.2059 125.081 60.1759 123.977 60.1759 119.039C60.1759 115.557 58.3779 113.153 56.8264 114.576C56.2464 115.115 55.7824 116.622 55.7969 117.928C55.8332 120.67 54.7602 122.983 52.8969 124.178C51.9689 124.776 46.7924 125.101 34.5037 125.315C17.6764 125.614 17.3647 125.595 15.0447 124.159C12.8044 122.769 12.6812 122.47 12.5072 118.149ZM22.4759 107.143C22.4759 95.3448 22.7007 92.0833 23.7157 89.1921C24.3972 87.2495 24.9699 85.4109 24.9844 85.0991C25.0062 84.6053 23.3822 84.0985 16.1829 82.3443C10.7672 81.0254 4.40166 98.2814 8.58491 102.92C11.0717 105.668 12.3259 104.239 12.3259 98.6582C12.3259 94.7536 12.5652 93.6621 13.4859 93.3437C15.5957 92.6226 15.9292 94.6301 15.9364 108.098C15.9437 116.233 16.2337 121.619 16.6759 121.904C17.0747 122.164 17.8069 122.366 18.3072 122.366C22.6282 122.32 22.4759 122.879 22.4759 107.143ZM30.0884 122.372C31.4224 122.372 30.3639 107.494 29.0082 107.104C26.4779 106.39 26.1009 107.306 26.1009 114.193C26.1009 119.371 26.3474 121.047 27.1884 121.625C27.7902 122.034 28.6022 122.372 29.0009 122.372H30.0884ZM41.3259 111.288C41.3259 101.069 41.5942 99.9187 43.7982 100.672C44.7842 101.017 44.9509 102.537 44.9509 111.126C44.9509 121.183 44.9509 121.183 46.9954 121.878C51.2077 123.301 51.3237 122.911 51.6644 106.455C51.9327 93.1618 52.1357 91.1152 53.5132 87.9382C55.6592 82.9745 54.0497 81.0644 49.2864 82.9161C45.5962 84.3519 41.0867 84.3454 37.2079 82.9096C34.1557 81.7791 34.1557 81.7791 31.8719 83.7217C25.1294 89.465 23.7592 104.181 29.9652 104.181C30.1464 104.181 30.4147 101.868 30.5597 99.0351C30.8352 93.5646 31.1759 92.746 32.9594 93.3632C33.9164 93.6881 34.0759 95.6566 34.0759 107.013C34.0759 117.915 34.2717 120.475 35.1634 121.326C35.7652 121.904 36.6569 122.366 37.1572 122.366C41.3477 122.32 41.3259 122.385 41.3259 111.288ZM69.7822 121.749C70.0794 121.736 70.3259 117.396 70.3259 112.1C70.3259 104.545 70.5579 102.212 71.4134 101.218C73.7769 98.4828 74.6759 101.484 74.6759 112.088C74.6759 121.697 74.6759 121.697 76.4232 122.093C80.9182 123.1 81.1502 122.405 81.3677 107.254C81.5562 93.9544 81.6142 93.4607 83.0134 93.4607C84.3257 93.4607 84.4852 93.9544 84.6737 98.8207C84.8912 104.421 85.3697 105.064 88.0232 103.33C90.4664 101.731 89.4297 90.9008 86.4427 86.7688C83.4702 82.6627 80.7442 81.3958 78.2574 82.955C75.9519 84.4039 69.6807 84.3779 66.4182 82.9031C63.8952 81.7661 63.8952 81.7661 61.2054 84.0205C54.5862 89.569 53.2594 104.181 59.3712 104.181C59.8062 104.181 60.2049 101.926 60.3282 98.8207C60.5167 93.9544 60.6762 93.4607 61.9884 93.4607C63.3877 93.4607 63.4457 93.9544 63.6342 107.098C63.7937 118.169 64.0329 120.884 64.9029 121.554C65.4902 122.002 66.7082 122.236 67.6072 122.073C68.5062 121.911 69.4849 121.768 69.7822 121.749ZM100.051 111.048C100.051 102.53 100.218 101.01 101.204 100.672C103.4 99.9187 103.676 101.062 103.676 111.016C103.676 121.989 104.082 122.957 108.294 122.008C110.679 121.476 110.926 119.936 110.926 105.402C110.926 93.8245 111.006 93.1358 112.289 93.1358C113.985 93.1358 114.529 94.8185 114.544 100.12C114.551 104.499 114.783 104.739 117.386 103.109C119.002 102.095 119.075 101.757 118.734 96.4363C118.154 87.3535 113.405 81.0254 108.388 82.6562C103.857 84.1245 102.973 82.1364 106.902 79.3232C111.876 75.7694 111.317 69.8182 105.72 66.5827C96.8754 61.4695 89.0164 72.404 96.5709 79.3037C100.276 82.6822 99.6957 84.2739 95.3239 82.7341C90.8869 81.1749 89.2629 83.3384 91.4162 87.9382C92.9169 91.1282 93.0474 92.4861 93.1634 106.279C93.2794 119.416 93.4317 121.248 94.4974 121.774C95.1572 122.106 96.0489 122.372 96.4767 122.372C99.7609 122.372 100.051 121.463 100.051 111.048ZM118.901 114.264C118.901 107.306 118.531 106.383 115.994 107.104C114.667 107.488 114.551 108.098 114.551 114.946C114.551 119.767 114.819 122.372 115.327 122.372C118.386 122.372 118.901 121.196 118.901 114.264ZM129.065 108.17C129.073 94.6301 129.406 92.6226 131.516 93.3437C132.422 93.6556 132.676 94.7146 132.69 98.1515C132.705 104.311 135.17 106.279 137.12 101.686C140.477 93.7725 132.835 80.2328 126.528 82.9291C125.1 83.5398 123.367 84.0465 122.685 84.053C119.959 84.0725 119.677 84.8846 121.105 88.5944C122.294 91.674 122.482 94.1623 122.504 106.812C122.519 119.182 122.693 121.528 123.613 121.917C124.215 122.164 125.165 122.372 125.73 122.372C129.036 122.372 129.051 122.314 129.065 108.17ZM58.5447 107.189C56.0362 106.585 55.8259 106.669 55.8259 108.261C55.8259 109.073 56.1522 109.95 56.5509 110.21C56.9497 110.47 57.9284 110.678 58.7259 110.678C60.8719 110.678 60.7197 107.709 58.5447 107.189ZM89.1759 108.261C89.1759 106.883 88.9222 106.689 87.5447 107.02C86.6457 107.234 85.6669 107.416 85.3697 107.423C85.0724 107.423 84.8259 108.163 84.8259 109.053C84.8259 110.021 85.2392 110.678 85.8554 110.678C88.0087 110.678 89.1759 109.833 89.1759 108.261ZM60.8502 76.692C59.2117 72.6248 55.8622 72.9887 54.6297 77.3676C54.3977 78.2058 54.7094 79.3622 55.3909 80.1289C56.0289 80.85 57.0077 81.4412 57.5587 81.4412C60.3064 81.4412 61.8652 79.1998 60.8502 76.692ZM30.9802 72.8003C30.8134 67.4792 30.8134 67.4792 27.9497 66.2773C22.2439 63.8669 15.9509 67.6352 15.9509 73.463C15.9509 76.0033 16.3134 76.7439 18.4884 78.6086C20.5764 80.4082 21.5842 80.7915 24.1942 80.7915C29.8057 80.7915 31.1759 79.1803 30.9802 72.8003ZM33.814 73.4461C33.814 75.5946 34.7664 77.6552 36.4617 79.1744C38.1571 80.6936 40.4564 81.5471 42.854 81.5471C45.2516 81.5471 47.5509 80.6936 49.2463 79.1744C50.9416 77.6552 51.894 75.5946 51.894 73.4461C51.894 71.2975 50.9416 69.237 49.2463 67.7177C47.5509 66.1985 45.2516 65.345 42.854 65.345C40.4564 65.345 38.1571 66.1985 36.4617 67.7177C34.7664 69.237 33.814 71.2975 33.814 73.4461ZM63.0692 73.4656C63.0906 75.61 64.0562 77.6602 65.7559 79.1698C67.4557 80.6795 69.752 81.5264 72.1451 81.5264C74.5382 81.5264 76.8345 80.6795 78.5342 79.1698C80.234 77.6602 81.1996 75.61 81.221 73.4656C81.1996 71.3211 80.234 69.2709 78.5342 67.7613C76.8345 66.2517 74.5382 65.4047 72.1451 65.4047C69.752 65.4047 67.4557 66.2517 65.7559 67.7613C64.0562 69.2709 63.0906 71.3211 63.0692 73.4656ZM121.917 65.4457C116.718 64.5166 114.217 66.8165 113.978 72.7288C113.782 77.673 113.884 78.0758 115.609 79.3882C116.914 80.3822 118.422 80.7915 120.786 80.7915C130.957 80.7915 131.958 67.2453 121.917 65.4457ZM17.8284 63.9709C20.9097 61.7944 19.9744 56.103 16.5307 56.103C15.3997 56.103 15.2257 56.7073 15.2257 60.6509C15.2257 63.1523 15.4214 65.1988 15.6534 65.1988C15.8927 65.1988 16.8714 64.6466 17.8284 63.9709ZM114.29 63.763C117.965 61.8139 123.526 61.8074 126.926 63.737C129.413 65.1533 129.413 65.1533 129.631 61.2616C129.855 57.1685 127.441 44.8308 126.136 43.4209C125.708 42.9531 122.489 42.3554 118.698 42.0436C112.02 41.4848 112.02 41.4848 108.961 45.1816C106.112 48.6185 105.546 48.9693 100.979 50.1063C96.0632 51.3407 96.0632 51.3407 95.853 57.3115C95.6427 63.2887 95.6427 63.2887 97.6655 62.7819C98.782 62.5026 101.109 62.3141 102.842 62.3596C104.792 62.4116 106.8 62.9703 108.098 63.8214C109.258 64.5816 110.505 65.1988 110.882 65.1988C111.259 65.1988 112.789 64.5491 114.29 63.763ZM87.5662 24.7551C89.444 20.8829 89.7267 20.6295 93.7069 19.2327C102.494 16.1596 95.447 11.9041 78.4602 10.02C67.114 8.76605 61.5242 10.949 70.3547 13.1905C76.5825 14.7693 81.8315 19.0638 82.6797 23.2673C83.0422 25.067 83.5062 27.055 83.7165 27.6788C83.9267 28.3025 84.4342 28.8157 84.8475 28.8157C85.2534 28.8157 86.4787 26.9901 87.5662 24.7551Z" fill="#FEC90F" stroke="#FEC90F"/>
</svg>
