<svg width="145" height="129" viewBox="0 0 145 129" fill="none" xmlns="http://www.w3.org/2000/svg">
<path d="M12.5072 116.385C12.1302 106.842 12.0722 106.669 8.76616 105.179C0.950664 101.646 2.03091 87.4215 10.7019 79.7342C12.9277 77.7562 12.9277 77.7562 12.1664 67.4487C11.0644 52.575 14.7112 36.7702 19.8152 34.2913C22.2584 33.1032 22.1279 34.7408 19.2497 41.7602C16.0524 49.5245 16.0524 49.5245 19.5324 52.4466C21.3667 53.9879 22.6862 55.8375 23.2082 57.5843C23.9694 60.1467 24.3029 60.4165 28.4644 61.8614C34.8444 64.0771 35.6637 63.8716 32.4447 60.8596C25.8617 54.7072 32.4157 47.5658 41.5869 50.9053C44.7842 52.0741 44.7842 52.0741 49.8954 47.8163C53.4552 44.8557 55.7969 43.4235 57.5949 43.1217C62.0174 42.3703 61.7129 44.0015 56.8627 47.0006C54.4992 48.4649 51.4107 50.8796 49.9969 52.3567C47.1187 55.3879 45.2844 55.7155 40.2819 54.1035C36.5844 52.909 34.0759 53.6797 34.0759 56.0045C34.0759 58.3228 37.2007 59.9797 43.7982 61.1486C49.0399 62.0862 49.7504 62.4009 52.1357 64.8734C57.0584 69.979 58.0299 70.0753 62.4959 65.9138C72.0224 57.0192 84.6882 61.2256 84.3184 73.1644C84.1444 78.6874 85.1522 80.203 88.2552 79.0856C89.9952 78.4562 90.0822 78.2121 89.7197 74.924C89.4514 72.4836 89.7414 70.268 90.6984 67.5771C91.6482 64.8798 92.0614 61.7715 92.0687 57.199C92.0759 48.9787 92.4529 48.3236 98.0789 46.6025C101.762 45.4786 103.328 44.5153 106.634 41.3171C110.672 37.4124 110.672 37.4124 116.965 37.5922C122.163 37.74 123.251 37.6051 123.251 36.8023C123.251 34.6381 113.275 23.7205 108.207 20.336C103.132 16.9516 103.132 16.9516 98.5139 19.591C93.6854 22.3461 91.6989 24.2085 89.2774 28.2416C86.3847 33.0518 80.7877 31.0609 79.0622 24.6131C77.9022 20.2975 74.7847 17.4782 69.3037 15.7699C66.8024 14.9928 64.0257 13.5735 62.8947 12.501C61.1547 10.8377 60.5312 10.645 57.9864 10.9404C49.4967 11.9295 43.0514 26.5526 50.0042 29.0444C51.6862 29.6481 51.8964 29.4811 53.4117 26.4113C55.8114 21.5369 57.1527 20.8305 62.9454 21.3892C70.6449 22.1278 71.4279 22.6993 74.4149 29.7059C77.5542 37.0464 77.2424 38.8317 72.5082 40.6556C67.6072 42.5373 65.5482 41.4262 69.2384 38.8895C72.9432 36.3399 73.0592 35.5821 70.5652 30.2389C68.5424 25.8911 68.4627 25.8205 64.8884 25.0177C59.8497 23.881 58.7042 24.4012 56.4277 28.8389C51.5049 38.4271 40.1659 30.7463 43.9287 20.3745C44.7624 18.0818 45.1684 16.091 44.8349 15.9561C43.6967 15.5066 35.9029 20.6186 30.8134 25.159C25.8617 29.571 25.7239 29.6481 25.0134 28.1646C22.2584 22.3911 47.3579 8.55142 64.3882 6.46423C104.321 1.56415 135.489 29.0894 132.843 66.9156C132.081 77.814 132.081 77.814 135.206 80.8388C143.159 88.5261 143.819 101.749 136.41 105.095C132.864 106.701 132.676 107.169 132.676 114.24C132.676 123.617 133.415 123.302 111.397 123.328C90.0894 123.347 90.4302 123.456 89.3354 116.533C88.2987 109.931 85.3987 110.933 84.5867 118.177C84.0792 122.685 81.8824 123.565 71.5439 123.392C62.2059 123.238 60.1759 122.146 60.1759 117.265C60.1759 113.823 58.3779 111.447 56.8264 112.853C56.2464 113.386 55.7824 114.876 55.7969 116.167C55.8332 118.877 54.7602 121.163 52.8969 122.345C51.9689 122.936 46.7924 123.257 34.5037 123.469C17.6764 123.764 17.3647 123.745 15.0447 122.326C12.8044 120.951 12.6812 120.656 12.5072 116.385ZM22.4759 105.506C22.4759 93.8436 22.7007 90.6197 23.7157 87.7618C24.3972 85.8416 24.9699 84.0242 24.9844 83.7159C25.0062 83.2278 23.3822 82.7269 16.1829 80.9929C10.7672 79.6892 4.40166 96.7464 8.58491 101.332C11.0717 104.048 12.3259 102.635 12.3259 97.1189C12.3259 93.2592 12.5652 92.1803 13.4859 91.8656C15.5957 91.1527 15.9292 93.1372 15.9364 106.45C15.9437 114.491 16.2337 119.815 16.6759 120.097C17.0747 120.354 17.8069 120.553 18.3072 120.553C22.6282 120.508 22.4759 121.061 22.4759 105.506ZM30.0884 120.56C31.4224 120.56 30.3639 105.853 29.0082 105.468C26.4779 104.761 26.1009 105.667 26.1009 112.474C26.1009 117.593 26.3474 119.249 27.1884 119.821C27.7902 120.226 28.6022 120.56 29.0009 120.56H30.0884ZM41.3259 109.603C41.3259 99.5015 41.5942 98.3648 43.7982 99.1097C44.7842 99.4501 44.9509 100.953 44.9509 109.443C44.9509 119.384 44.9509 119.384 46.9954 120.072C51.2077 121.478 51.3237 121.093 51.6644 104.825C51.9327 91.6858 52.1357 89.6628 53.5132 86.5224C55.6592 81.6159 54.0497 79.7278 49.2864 81.5581C45.5962 82.9774 41.0867 82.9709 37.2079 81.5516C34.1557 80.4342 34.1557 80.4342 31.8719 82.3544C25.1294 88.0316 23.7592 102.578 29.9652 102.578C30.1464 102.578 30.4147 100.291 30.5597 97.4914C30.8352 92.0839 31.1759 91.2747 32.9594 91.8848C33.9164 92.206 34.0759 94.1518 34.0759 105.378C34.0759 116.154 34.2717 118.684 35.1634 119.526C35.7652 120.097 36.6569 120.553 37.1572 120.553C41.3477 120.508 41.3259 120.572 41.3259 109.603ZM69.7822 119.943C70.0794 119.93 70.3259 115.64 70.3259 110.406C70.3259 102.937 70.5579 100.632 71.4134 99.6492C73.7769 96.9455 74.6759 99.9125 74.6759 110.393C74.6759 119.892 74.6759 119.892 76.4232 120.283C80.9182 121.279 81.1502 120.592 81.3677 105.615C81.5562 92.4693 81.6142 91.9812 83.0134 91.9812C84.3257 91.9812 84.4852 92.4693 84.6737 97.2794C84.8912 102.815 85.3697 103.451 88.0232 101.736C90.4664 100.157 89.4297 89.4509 86.4427 85.3664C83.4702 81.3076 80.7442 80.0553 78.2574 81.5966C75.9519 83.0287 69.6807 83.003 66.4182 81.5452C63.8952 80.4214 63.8952 80.4214 61.2054 82.6498C54.5862 88.1343 53.2594 102.578 59.3712 102.578C59.8062 102.578 60.2049 100.349 60.3282 97.2794C60.5167 92.4693 60.6762 91.9812 61.9884 91.9812C63.3877 91.9812 63.4457 92.4693 63.6342 105.461C63.7937 116.404 64.0329 119.089 64.9029 119.75C65.4902 120.194 66.7082 120.425 67.6072 120.264C68.5062 120.104 69.4849 119.962 69.7822 119.943ZM100.051 109.366C100.051 100.946 100.218 99.4437 101.204 99.1097C103.4 98.3648 103.676 99.4951 103.676 109.334C103.676 120.181 104.082 121.138 108.294 120.2C110.679 119.673 110.926 118.151 110.926 103.785C110.926 92.3408 111.006 91.6601 112.289 91.6601C113.985 91.6601 114.529 93.3234 114.544 98.5638C114.551 102.892 114.783 103.13 117.386 101.518C119.002 100.516 119.075 100.182 118.734 94.9225C118.154 85.9444 113.405 79.6892 108.388 81.3012C103.857 82.7526 102.973 80.7874 106.902 78.0066C111.876 74.4937 111.317 68.6111 105.72 65.4129C96.8754 60.3587 89.0164 71.1671 96.5709 77.9874C100.276 81.3269 99.6957 82.9003 95.3239 81.3782C90.8869 79.8369 89.2629 81.9755 91.4162 86.5224C92.9169 89.6756 93.0474 91.0179 93.1634 104.652C93.2794 117.638 93.4317 119.449 94.4974 119.969C95.1572 120.296 96.0489 120.56 96.4767 120.56C99.7609 120.56 100.051 119.661 100.051 109.366ZM118.901 112.545C118.901 105.667 118.531 104.755 115.994 105.468C114.667 105.847 114.551 106.45 114.551 113.219C114.551 117.984 114.819 120.56 115.327 120.56C118.386 120.56 118.901 119.397 118.901 112.545ZM129.065 106.521C129.073 93.1372 129.406 91.1527 131.516 91.8656C132.422 92.1738 132.676 93.2206 132.69 96.6179C132.705 102.706 135.17 104.652 137.12 100.112C140.477 92.2894 132.835 78.9057 126.528 81.5709C125.1 82.1746 123.367 82.6755 122.685 82.6819C119.959 82.7012 119.677 83.504 121.105 87.171C122.294 90.2151 122.482 92.6748 122.504 105.179C122.519 117.406 122.693 119.725 123.613 120.11C124.215 120.354 125.165 120.56 125.73 120.56C129.036 120.56 129.051 120.502 129.065 106.521ZM58.5447 105.551C56.0362 104.954 55.8259 105.037 55.8259 106.611C55.8259 107.414 56.1522 108.281 56.5509 108.537C56.9497 108.794 57.9284 109 58.7259 109C60.8719 109 60.7197 106.065 58.5447 105.551ZM89.1759 106.611C89.1759 105.249 88.9222 105.057 87.5447 105.384C86.6457 105.596 85.6669 105.776 85.3697 105.782C85.0724 105.782 84.8259 106.514 84.8259 107.394C84.8259 108.351 85.2392 109 85.8554 109C88.0087 109 89.1759 108.165 89.1759 106.611ZM60.8502 75.4057C59.2117 71.3854 55.8622 71.7451 54.6297 76.0736C54.3977 76.902 54.7094 78.0452 55.3909 78.803C56.0289 79.5158 57.0077 80.1002 57.5587 80.1002C60.3064 80.1002 61.8652 77.8846 60.8502 75.4057ZM30.9802 71.5588C30.8134 66.2991 30.8134 66.2991 27.9497 65.111C22.2439 62.7284 15.9509 66.4532 15.9509 72.2139C15.9509 74.7249 16.3134 75.4571 18.4884 77.3002C20.5764 79.0791 21.5842 79.458 24.1942 79.458C29.8057 79.458 31.1759 77.8653 30.9802 71.5588ZM33.814 72.1972C33.814 74.321 34.7664 76.3578 36.4617 77.8595C38.1571 79.3613 40.4564 80.2049 42.854 80.2049C45.2516 80.2049 47.5509 79.3613 49.2463 77.8595C50.9416 76.3578 51.894 74.321 51.894 72.1972C51.894 70.0734 50.9416 68.0366 49.2463 66.5349C47.5509 65.0331 45.2516 64.1894 42.854 64.1894C40.4564 64.1894 38.1571 65.0331 36.4617 66.5349C34.7664 68.0366 33.814 70.0734 33.814 72.1972ZM63.0692 72.2165C63.0906 74.3362 64.0562 76.3627 65.7559 77.855C67.4557 79.3472 69.752 80.1844 72.1451 80.1844C74.5382 80.1844 76.8345 79.3472 78.5342 77.855C80.234 76.3627 81.1996 74.3362 81.221 72.2165C81.1996 70.0967 80.234 68.0702 78.5342 66.5779C76.8345 65.0857 74.5382 64.2485 72.1451 64.2485C69.752 64.2485 67.4557 65.0857 65.7559 66.5779C64.0562 68.0702 63.0906 70.0967 63.0692 72.2165ZM121.917 64.289C116.718 63.3706 114.217 65.6441 113.978 71.4882C113.782 76.3754 113.884 76.7736 115.609 78.0709C116.914 79.0534 118.422 79.458 120.786 79.458C130.957 79.458 131.958 66.0679 121.917 64.289ZM17.8284 62.8312C20.9097 60.6798 19.9744 55.054 16.5307 55.054C15.3997 55.054 15.2257 55.6512 15.2257 59.5495C15.2257 62.022 15.4214 64.0449 15.6534 64.0449C15.8927 64.0449 16.8714 63.4991 17.8284 62.8312ZM114.29 62.6257C117.965 60.699 123.526 60.6926 126.926 62.6C129.413 64 129.413 64 129.631 60.1531C129.855 56.1072 127.441 43.9116 126.136 42.518C125.708 42.0556 122.489 41.4648 118.698 41.1565C112.02 40.6042 112.02 40.6042 108.961 44.2584C106.112 47.6557 105.546 48.0025 100.979 49.1264C96.0632 50.3466 96.0632 50.3466 95.853 56.2485C95.6427 62.1568 95.6427 62.1568 97.6655 61.6559C98.782 61.3798 101.109 61.1935 102.842 61.2385C104.792 61.2899 106.8 61.8422 108.098 62.6835C109.258 63.4348 110.505 64.0449 110.882 64.0449C111.259 64.0449 112.789 63.4027 114.29 62.6257ZM87.5662 24.0673C89.444 20.2397 89.7267 19.9892 93.7069 18.6085C102.494 15.5708 95.447 11.3643 78.4602 9.50189C67.114 8.26242 61.5242 10.4203 70.3547 12.6359C76.5825 14.1965 81.8315 18.4415 82.6797 22.5966C83.0422 24.3755 83.5062 26.3407 83.7165 26.9572C83.9267 27.5737 84.4342 28.0811 84.8475 28.0811C85.2535 28.0811 86.4787 26.2765 87.5662 24.0673Z" fill="#231F20" stroke="#231F20"/>
</svg>
