<svg width="147" height="147" viewBox="0 0 147 147" fill="none" xmlns="http://www.w3.org/2000/svg">
<path d="M26.7068 39.3276C27.8143 35.2146 27.8143 35.2146 24.2752 31.8266C18.8785 26.6614 16.9806 19.543 19.84 15.138C21.4711 12.631 22.3572 14.0506 21.6322 18.0025C20.6304 23.4848 22.1457 26.893 27.4065 30.9607C30.9406 33.6943 31.4339 34.2933 32.5717 37.2535L33.8353 40.5257C37.2938 33.1959 37.8022 32.5767 40.1029 31.2527C51.9384 24.4363 45.9678 6.32307 32.3653 7.7679C28.6953 8.16057 27.6482 7.40543 29.8129 5.9304C33.0348 3.74553 40.561 5.45718 44.8603 9.34865C46.9595 11.2516 46.9595 11.2516 52.5526 8.91571C71.0434 1.1831 90.3145 4.98899 103.831 19.0446C128.298 44.4877 116.029 86.5841 81.721 94.9107C77.7842 95.8672 75.252 96.1542 70.7715 96.1542C66.2055 96.1542 63.8746 95.8823 60.0234 94.8956C35.275 88.5726 20.2176 63.4618 26.7068 39.3276ZM75.3275 87.2033C74.6731 85.6175 73.9934 83.9864 73.8273 83.5686C73.5806 82.9745 73.3893 83.0601 72.9111 83.9814C71.2196 87.2587 66.3313 87.903 62.7117 85.3305C59.5149 83.0551 59.1928 83.0903 55.4573 86.1008C51.9132 88.9552 51.9183 89.2522 55.548 90.687C56.9777 91.2508 60.1291 92.1469 62.5506 92.6755C64.9721 93.2041 68.4004 93.637 70.1674 93.637C77.0593 93.637 77.6735 92.8668 75.3275 87.2033ZM95.6508 84.9026C95.6508 84.4344 94.4123 81.5901 92.9021 78.5746C89.1616 71.1189 88.8998 69.7747 89.6399 61.8458C90.3497 54.1988 90.395 54.3397 85.834 49.8391C81.3736 45.4442 81.2276 44.4223 84.0166 37.1528C86.8257 29.8481 86.8408 29.9689 82.0482 24.8793C76.3092 18.7879 75.7 16.9101 77.9856 12.4296C80.1251 8.25119 79.8936 8.03975 72.8758 7.69238C66.2055 7.36012 59.1676 8.74454 53.2372 11.5486C49.084 13.512 49.084 13.512 49.235 18.0176C49.4465 24.3205 48.349 27.1195 43.7578 31.9575C38.9299 37.0471 38.6329 38.8493 41.9656 42.6905C45.117 46.3202 45.117 47.7851 41.9706 51.4702C37.908 56.2326 38.1093 58.644 42.9321 63.1698C47.0904 67.0713 47.8305 68.5967 46.6776 70.9125C45.409 73.4548 44.2763 73.3742 40.8882 70.5148C37.6411 67.7812 35.8288 67.3079 34.827 68.934C33.06 71.8237 34.8572 75.1312 41.7743 81.716C48.3188 87.9433 48.7165 88.0289 53.4889 84.1576C58.0903 80.4272 59.7012 80.1755 63.6481 82.5667C67.1821 84.7113 68.194 84.5553 71.0484 81.4542C73.1578 79.1737 73.6058 78.9018 74.6127 79.3146C75.5591 79.7073 76.1028 80.9457 77.6533 86.2115C78.6904 89.7405 79.7576 92.6302 80.0295 92.6302C83.04 92.6302 95.6508 86.3877 95.6508 84.9026ZM109.243 69.8553C109.243 67.9171 105.03 65.0576 101.188 64.3881C95.8723 63.4618 95.1473 62.6412 95.1423 57.5415C95.1423 55.0697 94.7698 52.4015 94.1405 50.3425C92.0714 43.5715 92.5144 42.771 99.8946 39.8109C105.825 37.4347 106.082 37.1025 106.515 31.3785C106.938 25.7653 104.546 22.1356 96.5217 16.2204C89.2724 10.874 83.8656 8.84019 82.2194 10.8287C78.1115 15.7925 78.2876 16.8144 84.3086 23.1727C89.9419 29.1131 90.0225 29.5763 86.8962 37.3944C83.931 44.8049 83.8656 44.3769 88.6532 48.943C92.7309 52.8244 92.7309 52.8244 92.3835 61.7803C92.0311 70.7312 92.0311 70.7312 95.097 76.8982C96.7885 80.2913 98.3441 83.0651 98.5606 83.0651C99.9802 83.0651 109.243 71.6172 109.243 69.8553ZM40.7875 65.0224C36.3675 60.8993 36.4279 61.0353 36.6494 55.709C36.735 53.5846 37.0723 52.8899 39.2672 50.2972C40.6516 48.6561 41.7843 47.025 41.7843 46.6675C41.7843 45.7966 37.183 41.3967 36.9363 42.036C36.8306 42.3129 36.3373 43.6721 35.8439 45.0566C34.4092 49.0588 33.3117 48.5856 31.5195 43.1838C29.7273 37.7821 29.4404 37.923 28.4385 44.6639C27.4971 51.0171 28.0106 57.1841 30.0193 63.5373C31.4087 67.9372 32.0229 68.6219 32.9643 66.8045C34.1172 64.5794 35.4009 64.2622 38.2604 65.4956C39.6498 66.0897 41.4672 67.3432 42.2928 68.2795C43.1184 69.2109 43.9692 69.9761 44.1756 69.9761C45.4845 69.9761 44.4021 68.3953 40.7875 65.0224ZM113.633 52.8596C113.945 46.6927 113.024 40.7321 110.935 35.4009C109.591 31.9675 109.591 31.9675 109.258 34.092C108.604 38.2855 107.089 39.7807 101.063 42.1669C94.9762 44.5733 95.1222 44.3367 96.6626 49.2551C97.307 51.3091 97.6645 53.8615 97.6645 56.4088C97.6645 61.0302 97.6192 60.9849 102.95 61.8961C106.026 62.4197 106.711 62.7469 108.362 64.4737C109.399 65.5611 110.467 66.281 110.733 66.0745C111.775 65.254 113.376 57.9644 113.633 52.8596Z" fill="white" stroke="white"/>
<path d="M56.7457 133.408C61.2514 133.408 61.4175 133.367 61.4376 132.275C61.4628 130.553 62.4747 129.073 64.5639 127.709C66.4517 126.471 66.4517 126.471 66.4417 117.983C66.4366 107.703 66.8847 108.448 59.7562 106.938C45.3582 103.882 33.6738 96.5319 35.8737 91.9155C37.4796 88.5526 39.1359 88.5778 45.2626 92.0766C86.9663 115.878 134.006 75.534 115.777 31.6002C112.948 24.7788 112.777 23.5303 114.453 21.8388C117.65 18.6068 120.958 21.0232 124.094 28.8766C137.691 62.9132 117.252 100.242 81.2272 107.159C74.6827 108.418 75.01 107.844 75.01 117.988C75.01 126.501 75.01 126.501 77.3559 127.855C79.2891 128.968 79.7975 129.577 80.2506 131.308C80.7993 133.408 80.7993 133.408 84.9778 133.408C91.4468 133.408 92.6298 134.309 92.6298 139.237C92.6298 141.966 92.6298 141.966 70.9826 141.966C49.3353 141.966 49.3353 141.966 49.0383 140.219C48.2127 135.321 50.3824 133.408 56.7457 133.408ZM90.1127 137.999C90.1127 136.917 89.8207 136.469 88.98 136.242C87.4747 135.839 55.4418 135.834 53.4281 136.242C52.0991 136.504 51.8524 136.781 51.8524 138.004C51.8524 139.449 51.8524 139.449 70.9826 139.449C90.1127 139.449 90.1127 139.449 90.1127 137.999ZM77.4365 132.023C77.2049 130.015 64.7653 129.526 64.2669 131.51C64.1058 132.144 64.0806 132.829 64.2065 133.035C64.3323 133.242 67.3982 133.408 71.0178 133.408C77.5925 133.408 77.5925 133.408 77.4365 132.023ZM72.4928 117.459C72.4928 108.237 72.4928 108.236 70.9826 108.236C69.4723 108.236 69.4723 108.236 69.4723 118.053C69.4723 127.87 69.4723 127.87 70.6553 127.87C72.4173 127.87 72.4928 127.452 72.4928 117.459ZM124.169 37.9634C122.438 30.8299 119.05 23.4799 117.388 23.2433C115.475 22.9715 115.586 24.5673 117.796 29.1988C122.528 39.0911 123.711 52.0895 120.892 63.2152C112.299 97.0957 72.8503 112.818 43.2942 94.1406C39.7098 91.8752 38.4815 91.6487 37.9931 93.1791C37.5753 94.498 43.1683 98.2637 49.5769 100.977C51.8826 101.949 56.056 103.303 58.85 103.983C62.9378 104.974 65.2435 105.216 70.605 105.216C106.202 105.211 132.481 72.2114 124.169 37.9634Z" fill="white" stroke="white"/>
<path d="M25.3623 20.4644C25.3623 18.2659 26.2357 16.1574 27.7903 14.6028C29.3449 13.0482 31.4534 12.1748 33.6519 12.1748C35.8505 12.1748 37.959 13.0482 39.5136 14.6028C41.0682 16.1574 41.9416 18.2659 41.9416 20.4644C41.9416 22.663 41.0682 24.7715 39.5136 26.3261C37.959 27.8807 35.8505 28.7541 33.6519 28.7541C31.4534 28.7541 29.3449 27.8807 27.7903 26.3261C26.2357 24.7715 25.3623 22.663 25.3623 20.4644ZM28.1433 20.5379C28.1433 22.0082 28.7273 23.4182 29.767 24.4579C30.8066 25.4975 32.2167 26.0816 33.687 26.0816C35.1573 26.0816 36.5673 25.4975 37.607 24.4579C38.6466 23.4182 39.2307 22.0082 39.2307 20.5379C39.2307 19.0676 38.6466 17.6575 37.607 16.6179C36.5673 15.5783 35.1573 14.9942 33.687 14.9942C32.2167 14.9942 30.8066 15.5783 29.767 16.6179C28.7273 17.6575 28.1433 19.0676 28.1433 20.5379Z" fill="white" stroke="white"/>
<path d="M54.3695 40.5257C55.0189 41.2204 55.7288 41.7843 55.9452 41.7843C56.1617 41.7843 56.9018 41.2204 57.5965 40.5257C59.2125 38.9097 60.6271 38.9298 62.2985 40.6063C63.6376 41.9454 63.6376 41.9454 65.5103 40.5408C67.5744 38.9903 68.4906 39.0456 70.4791 40.8529C71.7377 41.9957 71.7377 41.9957 73.0969 40.6314C74.5971 39.1312 76.3893 38.8392 76.8424 40.0273C77.2703 41.1348 73.3285 44.8048 71.7125 44.8048C70.9926 44.8048 69.9203 44.2561 69.2659 43.5462C68.6215 42.8566 67.9318 42.2877 67.7254 42.2877C67.519 42.2877 66.9048 42.8566 66.3611 43.5462C65.0119 45.2629 62.8472 45.2176 61.201 43.4405C59.9324 42.0762 59.9324 42.0762 58.5077 43.4405C57.677 44.2359 56.5141 44.8048 55.7288 44.8048C54.7823 44.8048 53.8158 44.1957 52.5522 42.7911C49.8286 39.7706 51.5957 37.5706 54.3695 40.5257Z" fill="white" stroke="white"/>
<path d="M58.891 47.5838C59.8425 46.441 60.8544 46.6474 62.4049 48.3037C63.7944 49.7938 63.7944 49.7938 65.214 48.3037C66.7797 46.6776 68.3252 46.3755 68.8034 47.6089C68.9947 48.1174 68.4108 49.1142 67.1723 50.3778C65.8332 51.7471 64.8062 52.3562 63.8346 52.3562C62.8781 52.3562 61.7555 51.7118 60.3409 50.3526C58.5889 48.6712 58.3574 48.2281 58.891 47.5838Z" fill="white" stroke="white"/>
<path d="M25.2371 9.56494C25.9973 9.56494 26.2087 9.84686 26.0879 10.6976C25.9973 11.3219 25.5291 11.8857 25.0458 11.9562C24.5625 12.0267 24.0289 11.7548 23.8627 11.3571C23.4449 10.3452 24.0389 9.56494 25.2371 9.56494Z" fill="white" stroke="white"/>
</svg>
