<svg width="147" height="142" viewBox="0 0 147 142" fill="none" xmlns="http://www.w3.org/2000/svg">
<path d="M26.7058 37.9133C27.8133 33.971 27.8133 33.971 24.2742 30.7234C18.8775 25.7725 16.9796 18.9493 19.8391 14.727C21.4702 12.324 22.3562 13.6847 21.6313 17.4727C20.6294 22.7276 22.1448 25.9945 27.4055 29.8934C30.9396 32.5137 31.4329 33.0879 32.5707 35.9253L33.8343 39.0618C37.2928 32.0359 37.8013 31.4424 40.1019 30.1733C51.9374 23.6397 45.9668 6.27768 32.3643 7.66259C28.6943 8.03897 27.6472 7.31515 29.8119 5.9013C33.0338 3.80705 40.56 5.4477 44.8593 9.17778C46.9586 11.0018 46.9586 11.0018 52.5516 8.76279C71.0424 1.35089 90.3135 4.99894 103.83 18.4716C128.297 42.8594 116.028 83.2099 81.72 91.1912C77.7832 92.108 75.251 92.383 70.7705 92.383C66.2045 92.383 63.8736 92.1225 60.0224 91.1767C35.2741 85.1159 20.2166 61.0466 26.7058 37.9133ZM75.3265 83.8034C74.6721 82.2834 73.9925 80.7199 73.8263 80.3194C73.5796 79.75 73.3884 79.8321 72.9101 80.7151C71.2186 83.8565 66.3303 84.4741 62.7107 82.0083C59.514 79.8272 59.1918 79.861 55.4564 82.7466C51.9123 85.4827 51.9173 85.7674 55.547 87.1426C56.9767 87.6831 60.1281 88.542 62.5496 89.0487C64.9711 89.5553 68.3994 89.9703 70.1664 89.9703C77.0583 89.9703 77.6725 89.232 75.3265 83.8034ZM95.6498 81.5982C95.6498 81.1494 94.4114 78.423 92.9011 75.5326C89.1606 68.3861 88.8989 67.0977 89.6389 59.4976C90.3487 52.1677 90.394 52.3028 85.833 47.9889C81.3727 43.7763 81.2267 42.7967 84.0156 35.8288C86.8248 28.827 86.8399 28.9428 82.0473 24.0643C76.3082 18.2255 75.6991 16.4256 77.9846 12.131C80.1242 8.12583 79.8926 7.92316 72.8749 7.5902C66.2045 7.27172 59.1666 8.59872 53.2363 11.2865C49.083 13.1684 49.083 13.1684 49.234 17.4872C49.4455 23.5287 48.348 26.2116 43.7568 30.8489C38.9289 35.7274 38.6319 37.4549 41.9646 41.1368C45.116 44.6159 45.116 46.0201 41.9696 49.5523C37.907 54.1172 38.1084 56.4286 42.9312 60.7667C47.0894 64.5064 47.8295 65.9685 46.6766 68.1882C45.408 70.6251 44.2753 70.5479 40.8873 67.807C37.6402 65.1868 35.8278 64.7332 34.826 66.2918C33.059 69.0616 34.8562 72.232 41.7733 78.5437C48.3178 84.5127 48.7155 84.5948 53.488 80.884C58.0893 77.3083 59.7002 77.0671 63.6471 79.3592C67.1811 81.4148 68.193 81.2652 71.0474 78.2927C73.1568 76.1068 73.6048 75.8462 74.6117 76.2419C75.5581 76.6183 76.1018 77.8054 77.6524 82.8528C78.6894 86.2354 79.7567 89.0052 80.0285 89.0052C83.039 89.0052 95.6498 83.0217 95.6498 81.5982ZM109.242 67.1749C109.242 65.3171 105.029 62.5762 101.187 61.9344C95.8713 61.0466 95.1464 60.26 95.1413 55.3718C95.1413 53.0025 94.7688 50.445 94.1395 48.4714C92.0704 41.9812 92.5134 41.214 99.8937 38.3766C105.824 36.099 106.081 35.7805 106.514 30.294C106.937 24.9136 104.545 21.4344 96.5207 15.7645C89.2714 10.6399 83.8646 8.69041 82.2184 10.5965C78.1105 15.3544 78.2867 16.3339 84.3076 22.4285C89.941 28.1225 90.0215 28.5664 86.8952 36.0604C83.9301 43.1634 83.8646 42.7533 88.6522 47.13C92.7299 50.8504 92.7299 50.8504 92.3826 59.4349C92.0302 68.0145 92.0302 68.0145 95.096 73.9257C96.7875 77.178 98.3431 79.8369 98.5596 79.8369C99.9792 79.8369 109.242 68.8638 109.242 67.1749ZM40.7866 62.5425C36.3665 58.5904 36.4269 58.7207 36.6484 53.6154C36.734 51.579 37.0713 50.9131 39.2662 48.428C40.6506 46.8549 41.7834 45.2915 41.7834 44.9489C41.7834 44.1141 37.1821 39.8966 36.9354 40.5094C36.8297 40.7748 36.3363 42.0777 35.8429 43.4047C34.4082 47.2409 33.3107 46.7874 31.5185 41.6096C29.7263 36.4319 29.4394 36.567 28.4376 43.0283C27.4962 49.118 28.0097 55.0292 30.0183 61.1189C31.4078 65.3364 32.0219 65.9927 32.9634 64.2507C34.1162 62.1178 35.3999 61.8138 38.2594 62.9961C39.6488 63.5655 41.4662 64.767 42.2918 65.6645C43.1174 66.5572 43.9682 67.2907 44.1746 67.2907C45.4835 67.2907 44.4012 65.7755 40.7866 62.5425ZM113.632 50.8842C113.944 44.973 113.023 39.2596 110.934 34.1495C109.59 30.8585 109.59 30.8585 109.257 32.8949C108.603 36.9145 107.088 38.3476 101.062 40.6349C94.9752 42.9415 95.1212 42.7147 96.6617 47.4291C97.3061 49.3979 97.6635 51.8444 97.6635 54.2861C97.6635 58.7159 97.6182 58.6724 102.949 59.5458C106.025 60.0477 106.71 60.3614 108.361 62.0165C109.398 63.0588 110.466 63.7488 110.732 63.551C111.774 62.7644 113.375 55.7772 113.632 50.8842Z" fill="#231F20" stroke="#231F20"/>
<path d="M56.7467 128.091C61.2523 128.091 61.4185 128.053 61.4386 127.006C61.4638 125.355 62.4757 123.937 64.5649 122.629C66.4527 121.442 66.4527 121.442 66.4426 113.306C66.4376 103.453 66.8857 104.167 59.7572 102.719C45.3592 99.7901 33.6747 92.7449 35.8747 88.32C37.4806 85.0966 39.1369 85.1207 45.2636 88.4744C86.9673 111.289 134.007 72.6179 115.778 30.5062C112.949 23.9677 112.778 22.771 114.454 21.1497C117.651 18.0517 120.958 20.368 124.095 27.8957C137.692 60.5205 117.253 96.3013 81.2282 102.931C74.6837 104.138 75.0109 103.588 75.0109 113.311C75.0109 121.471 75.0109 121.471 77.3569 122.769C79.29 123.835 79.7985 124.419 80.2516 126.079C80.8003 128.091 80.8003 128.091 84.9787 128.091C91.4477 128.091 92.6308 128.955 92.6308 133.679C92.6308 136.295 92.6308 136.295 70.9835 136.295C49.3363 136.295 49.3363 136.295 49.0393 134.62C48.2136 129.925 50.3834 128.091 56.7467 128.091ZM90.1137 132.492C90.1137 131.455 89.8217 131.025 88.981 130.808C87.4757 130.422 55.4428 130.417 53.4291 130.808C52.1001 131.059 51.8534 131.324 51.8534 132.497C51.8534 133.882 51.8534 133.882 70.9835 133.882C90.1137 133.882 90.1137 133.882 90.1137 132.492ZM77.4374 126.764C77.2059 124.839 64.7662 124.371 64.2678 126.272C64.1068 126.88 64.0816 127.536 64.2074 127.734C64.3333 127.932 67.3992 128.091 71.0188 128.091C77.5935 128.091 77.5935 128.091 77.4374 126.764ZM72.4938 112.804C72.4938 103.964 72.4938 103.964 70.9835 103.964C69.4733 103.964 69.4733 103.964 69.4733 113.374C69.4733 122.783 69.4733 122.783 70.6563 122.783C72.4183 122.783 72.4938 122.383 72.4938 112.804ZM124.17 36.6056C122.439 29.7679 119.051 22.7228 117.389 22.496C115.476 22.2354 115.587 23.7651 117.797 28.2045C122.529 37.6865 123.712 50.1458 120.893 60.8101C112.3 93.2854 72.8512 108.355 43.2952 90.4528C39.7108 88.2814 38.4824 88.0642 37.9941 89.5312C37.5763 90.7954 43.1693 94.4049 49.5779 97.0058C51.8836 97.9371 56.057 99.2351 58.851 99.8866C62.9388 100.837 65.2445 101.069 70.606 101.069C106.203 101.064 132.482 69.4331 124.17 36.6056Z" fill="#231F20" stroke="#231F20"/>
<path d="M25.3633 19.8321C25.3633 17.7247 26.2367 15.7036 27.7913 14.2135C29.3459 12.7234 31.4544 11.8862 33.6529 11.8862C35.8515 11.8862 37.96 12.7234 39.5146 14.2135C41.0692 15.7036 41.9426 17.7247 41.9426 19.8321C41.9426 21.9394 41.0692 23.9605 39.5146 25.4506C37.96 26.9407 35.8515 27.7779 33.6529 27.7779C31.4544 27.7779 29.3459 26.9407 27.7913 25.4506C26.2367 23.9605 25.3633 21.9394 25.3633 19.8321ZM28.1442 19.9025C28.1442 21.3118 28.7283 22.6634 29.768 23.6599C30.8076 24.6564 32.2177 25.2163 33.688 25.2163C35.1582 25.2163 36.5683 24.6564 37.608 23.6599C38.6476 22.6634 39.2317 21.3118 39.2317 19.9025C39.2317 18.4932 38.6476 17.1416 37.608 16.145C36.5683 15.1485 35.1582 14.5887 33.688 14.5887C32.2177 14.5887 30.8076 15.1485 29.768 16.145C28.7283 17.1416 28.1442 18.4932 28.1442 19.9025Z" fill="#231F20" stroke="#231F20"/>
<path d="M54.3695 39.0615C55.0189 39.7274 55.7288 40.2679 55.9452 40.2679C56.1617 40.2679 56.9018 39.7274 57.5965 39.0615C59.2125 37.5125 60.6271 37.5318 62.2985 39.1387C63.6376 40.4223 63.6376 40.4223 65.5103 39.076C67.5744 37.5897 68.4906 37.6428 70.4791 39.3752C71.7377 40.4705 71.7377 40.4705 73.0969 39.1628C74.5971 37.7248 76.3893 37.445 76.8424 38.5838C77.2703 39.6454 73.3285 43.1631 71.7125 43.1631C70.9926 43.1631 69.9203 42.6372 69.2659 41.9568C68.6215 41.2957 67.9318 40.7504 67.7254 40.7504C67.519 40.7504 66.9048 41.2957 66.3611 41.9568C65.0119 43.6022 62.8472 43.5588 61.201 41.8554C59.9324 40.5477 59.9324 40.5477 58.5077 41.8554C57.677 42.6179 56.5141 43.1631 55.7288 43.1631C54.7823 43.1631 53.8158 42.5793 52.5522 41.233C49.8286 38.3377 51.5957 36.229 54.3695 39.0615Z" fill="#231F20" stroke="#231F20"/>
<path d="M58.89 45.8268C59.8415 44.7315 60.8534 44.9293 62.4039 46.5169C63.7934 47.9452 63.7934 47.9452 65.213 46.5169C66.7787 44.9582 68.3242 44.6687 68.8025 45.851C68.9938 46.3383 68.4098 47.2938 67.1714 48.505C65.8322 49.8175 64.8053 50.4014 63.8337 50.4014C62.8771 50.4014 61.7545 49.7837 60.3399 48.4808C58.588 46.8691 58.3564 46.4445 58.89 45.8268Z" fill="#231F20" stroke="#231F20"/>
<path d="M25.2361 9.38525C25.9963 9.38525 26.2077 9.65548 26.0869 10.471C25.9963 11.0693 25.5281 11.6098 25.0448 11.6773C24.5615 11.7449 24.0279 11.4843 23.8618 11.1031C23.4439 10.1332 24.038 9.38525 25.2361 9.38525Z" fill="#231F20" stroke="#231F20"/>
</svg>
