<svg width="147" height="144" viewBox="0 0 147 144" fill="none" xmlns="http://www.w3.org/2000/svg">
<path d="M26.7077 38.8329C27.8153 34.8445 27.8153 34.8445 24.2762 31.5591C18.8795 26.5505 16.9816 19.6478 19.841 15.3763C21.4721 12.9452 22.3581 14.3219 21.6332 18.154C20.6314 23.4702 22.1467 26.7751 27.4075 30.7195C30.9415 33.3703 31.4349 33.9512 32.5726 36.8216L33.8362 39.9947C37.2948 32.887 37.8032 32.2865 40.1039 31.0026C51.9394 24.3928 45.9688 6.82845 32.3662 8.2295C28.6963 8.61027 27.6491 7.87801 29.8139 6.44767C33.0358 4.32902 40.562 5.98879 44.8612 9.76235C46.9605 11.6076 46.9605 11.6076 52.5536 9.34252C71.0443 1.84423 90.3154 5.5348 103.832 19.1645C128.299 43.8366 116.03 84.6574 81.722 92.7317C77.7852 93.6593 75.253 93.9375 70.7725 93.9375C66.2064 93.9375 63.8756 93.6739 60.0244 92.7171C35.276 86.5857 20.2186 62.2358 26.7077 38.8329ZM75.3285 85.2579C74.674 83.7201 73.9944 82.1384 73.8283 81.7333C73.5816 81.1572 73.3903 81.2402 72.912 82.1336C71.2205 85.3116 66.3323 85.9364 62.7127 83.4419C59.5159 81.2353 59.1937 81.2695 55.4583 84.1888C51.9142 86.9567 51.9192 87.2447 55.5489 88.636C56.9787 89.1827 60.1301 90.0517 62.5516 90.5643C64.973 91.0768 68.4014 91.4967 70.1684 91.4967C77.0603 91.4967 77.6744 90.7498 75.3285 85.2579ZM95.6517 83.0269C95.6517 82.5729 94.4133 79.8148 92.903 76.8906C89.1626 69.6608 88.9008 68.3574 89.6408 60.6687C90.3507 53.2534 90.396 53.3901 85.835 49.0259C81.3746 44.7641 81.2286 43.7732 84.0176 36.724C86.8267 29.6406 86.8418 29.7578 82.0492 24.8224C76.3102 18.9155 75.701 17.0947 77.9866 12.75C80.1261 8.69814 79.8945 8.49311 72.8768 8.15627C66.2064 7.83408 59.1686 9.17655 53.2382 11.8957C49.085 13.7995 49.085 13.7995 49.236 18.1686C49.4474 24.2805 48.35 26.9948 43.7587 31.6861C38.9309 36.6215 38.6339 38.3691 41.9665 42.0939C45.118 45.6136 45.118 47.0341 41.9716 50.6075C37.9089 55.2256 38.1103 57.564 42.9331 61.9526C47.0914 65.7359 47.8314 67.2151 46.6786 69.4607C45.41 71.9259 44.2773 71.8478 40.8892 69.075C37.6421 66.4243 35.8298 65.9654 34.828 67.5422C33.061 70.3443 34.8582 73.5515 41.7752 79.9368C48.3198 85.9755 48.7175 86.0584 53.4899 82.3044C58.0912 78.6871 59.7022 78.443 63.649 80.7618C67.1831 82.8414 68.195 82.6901 71.0494 79.683C73.1587 77.4715 73.6068 77.2079 74.6136 77.6082C75.5601 77.989 76.1038 79.1899 77.6543 84.2962C78.6914 87.7182 79.7586 90.5203 80.0305 90.5203C83.041 90.5203 95.6517 84.467 95.6517 83.0269ZM109.244 68.4355C109.244 66.5561 105.031 63.7833 101.189 63.134C95.8732 62.2358 95.1483 61.44 95.1433 56.4949C95.1433 54.098 94.7707 51.5107 94.1415 49.514C92.0724 42.9482 92.5154 42.172 99.8956 39.3015C105.826 36.9974 106.083 36.6752 106.516 31.1247C106.939 25.6816 104.547 22.1619 96.5227 16.4259C89.2733 11.2415 83.8666 9.2693 82.2204 11.1976C78.1124 16.0109 78.2886 17.0019 84.3096 23.1675C89.9429 28.9279 90.0235 29.377 86.8972 36.9583C83.932 44.1442 83.8666 43.7292 88.6541 48.1569C92.7319 51.9207 92.7319 51.9207 92.3845 60.6053C92.0321 69.2849 92.0321 69.2849 95.098 75.265C96.7895 78.5553 98.3451 81.2451 98.5615 81.2451C99.9812 81.2451 109.244 70.1441 109.244 68.4355ZM40.7885 63.7491C36.3685 59.751 36.4289 59.8828 36.6504 54.7179C36.736 52.6579 37.0732 51.9842 39.2682 49.4701C40.6526 47.8787 41.7853 46.297 41.7853 45.9504C41.7853 45.1059 37.184 40.8393 36.9373 41.4592C36.8316 41.7277 36.3382 43.0458 35.8449 44.3883C34.4101 48.2692 33.3127 47.8103 31.5205 42.5723C29.7283 37.3342 29.4413 37.4709 28.4395 44.0075C27.4981 50.1682 28.0116 56.1483 30.0203 62.309C31.4097 66.5756 32.0239 67.2395 32.9653 65.4772C34.1181 63.3195 35.4019 63.0119 38.2613 64.208C39.6508 64.784 41.4681 65.9995 42.2938 66.9075C43.1194 67.8107 43.9702 68.5527 44.1766 68.5527C45.4855 68.5527 44.4031 67.0198 40.7885 63.7491ZM113.634 51.9549C113.946 45.9748 113.025 40.1949 110.936 35.0252C109.592 31.6958 109.592 31.6958 109.259 33.7559C108.605 37.8224 107.09 39.2722 101.064 41.5862C94.9771 43.9196 95.1231 43.6902 96.6636 48.4596C97.308 50.4513 97.6654 52.9263 97.6654 55.3965C97.6654 59.8779 97.6201 59.834 102.951 60.7175C106.027 61.2252 106.712 61.5426 108.363 63.217C109.4 64.2714 110.468 64.9695 110.734 64.7694C111.776 63.9736 113.377 56.9049 113.634 51.9549Z" fill="#FEC90F" stroke="#FEC90F"/>
<path d="M56.7447 130.062C61.2504 130.062 61.4165 130.023 61.4366 128.964C61.4618 127.295 62.4737 125.859 64.5629 124.536C66.4508 123.335 66.4508 123.335 66.4407 115.105C66.4356 105.136 66.8837 105.859 59.7552 104.394C45.3573 101.431 33.6728 94.304 35.8727 89.8275C37.4787 86.5665 39.1349 86.5909 45.2616 89.9837C86.9653 113.064 134.005 73.9424 115.776 31.3398C112.947 24.7251 112.776 23.5145 114.452 21.8742C117.649 18.7402 120.957 21.0834 124.093 28.6988C137.69 61.704 117.251 97.9018 81.2263 104.609C74.6818 105.83 75.009 105.273 75.009 115.11C75.009 123.365 75.009 123.365 77.3549 124.678C79.2881 125.757 79.7965 126.347 80.2496 128.027C80.7984 130.062 80.7984 130.062 84.9768 130.062C91.4458 130.062 92.6288 130.936 92.6288 135.715C92.6288 138.361 92.6288 138.361 70.9816 138.361C49.3343 138.361 49.3343 138.361 49.0373 136.667C48.2117 131.918 50.3814 130.062 56.7447 130.062ZM90.1117 134.515C90.1117 133.465 89.8197 133.031 88.979 132.811C87.4738 132.42 55.4409 132.415 53.4272 132.811C52.0981 133.065 51.8514 133.333 51.8514 134.519C51.8514 135.921 51.8514 135.921 70.9816 135.921C90.1117 135.921 90.1117 135.92 90.1117 134.515ZM77.4355 128.72C77.2039 126.772 64.7643 126.299 64.2659 128.222C64.1048 128.837 64.0796 129.501 64.2055 129.701C64.3313 129.901 67.3972 130.062 71.0168 130.062C77.5915 130.062 77.5915 130.062 77.4355 128.72ZM72.4919 114.597C72.4919 105.654 72.4919 105.654 70.9816 105.654C69.4713 105.654 69.4713 105.654 69.4713 115.173C69.4713 124.693 69.4713 124.693 70.6544 124.693C72.4163 124.693 72.4919 124.287 72.4919 114.597ZM124.168 37.5103C122.437 30.5929 119.049 23.4656 117.387 23.2362C115.474 22.9726 115.585 24.5201 117.795 29.0113C122.527 38.6038 123.71 51.2083 120.891 61.9969C112.298 94.8508 72.8493 110.096 43.2932 91.9852C39.7088 89.7884 38.4805 89.5688 37.9922 91.0528C37.5743 92.3318 43.1674 95.9833 49.576 98.6145C51.8816 99.5567 56.055 100.87 58.849 101.529C62.9369 102.491 65.2425 102.725 70.604 102.725C106.201 102.72 132.48 70.7205 124.168 37.5103Z" fill="#FEC90F" stroke="#FEC90F"/>
<path d="M25.3633 20.5414C25.3633 18.4095 26.2367 16.3648 27.7913 14.8573C29.3459 13.3498 31.4544 12.5029 33.6529 12.5029C35.8515 12.5029 37.96 13.3498 39.5146 14.8573C41.0692 16.3648 41.9426 18.4095 41.9426 20.5414C41.9426 22.6733 41.0692 24.7179 39.5146 26.2254C37.96 27.7329 35.8515 28.5798 33.6529 28.5798C31.4544 28.5798 29.3459 27.7329 27.7913 26.2254C26.2367 24.7179 25.3633 22.6733 25.3633 20.5414ZM28.1442 20.6126C28.1442 22.0383 28.7283 23.4057 29.768 24.4138C30.8076 25.422 32.2177 25.9883 33.688 25.9883C35.1582 25.9883 36.5683 25.422 37.608 24.4138C38.6476 23.4057 39.2317 22.0383 39.2317 20.6126C39.2317 19.1869 38.6476 17.8195 37.608 16.8114C36.5683 15.8032 35.1582 15.2369 33.688 15.2369C32.2177 15.2369 30.8076 15.8032 29.768 16.8114C28.7283 17.8195 28.1442 19.1869 28.1442 20.6126Z" fill="#FEC90F" stroke="#FEC90F"/>
<path d="M54.3715 39.9951C55.0209 40.6688 55.7307 41.2155 55.9472 41.2155C56.1637 41.2155 56.9037 40.6688 57.5984 39.9951C59.2144 38.4281 60.629 38.4476 62.3004 40.0732C63.6395 41.3717 63.6395 41.3717 65.5123 40.0097C67.5763 38.5062 68.4925 38.5599 70.4811 40.3124C71.7396 41.4205 71.7396 41.4205 73.0989 40.0976C74.5991 38.6428 76.3913 38.3597 76.8444 39.5118C77.2723 40.5858 73.3304 44.1445 71.7145 44.1445C70.9946 44.1445 69.9223 43.6124 69.2678 42.9241C68.6234 42.2553 67.9337 41.7037 67.7273 41.7037C67.5209 41.7037 66.9068 42.2553 66.3631 42.9241C65.0139 44.5888 62.8491 44.5448 61.2029 42.8216C59.9343 41.4986 59.9343 41.4986 58.5096 42.8216C57.679 43.5929 56.5161 44.1445 55.7307 44.1445C54.7843 44.1445 53.8177 43.5538 52.5541 42.1918C49.8306 39.2628 51.5976 37.1295 54.3715 39.9951Z" fill="#FEC90F" stroke="#FEC90F"/>
<path d="M58.89 46.8389C59.8415 45.7308 60.8534 45.9309 62.4039 47.537C63.7934 48.982 63.7934 48.982 65.213 47.537C66.7787 45.9602 68.3242 45.6673 68.8025 46.8633C68.9938 47.3564 68.4098 48.323 67.1714 49.5483C65.8322 50.8761 64.8053 51.4668 63.8337 51.4668C62.8771 51.4668 61.7545 50.8419 60.3399 49.5239C58.588 47.8934 58.3564 47.4638 58.89 46.8389Z" fill="#FEC90F" stroke="#FEC90F"/>
<path d="M25.2381 9.97266C25.9982 9.97266 26.2097 10.246 26.0888 11.071C25.9982 11.6764 25.53 12.2231 25.0468 12.2915C24.5635 12.3598 24.0298 12.0962 23.8637 11.7105C23.4459 10.7293 24.0399 9.97266 25.2381 9.97266Z" fill="#FEC90F" stroke="#FEC90F"/>
</svg>
