<svg width="185" height="160" viewBox="0 0 185 160" fill="none" xmlns="http://www.w3.org/2000/svg">
<path d="M57.6095 106.451C42.0245 83.7602 40.3929 79.9459 38.5976 61.9408C38.4201 60.1721 38.2357 60.0843 34.7883 60.0843C32.2966 60.0843 30.7607 59.713 29.8527 58.9029C29.0608 58.194 26.9856 57.5864 24.6782 57.3839C19.5924 56.9383 19.135 52.7797 23.4426 46.2041C34.7132 28.9822 61.2959 35.1864 63.8559 55.6421C64.4156 60.1248 65.2143 60.3678 68.5594 57.0463C72.6348 53.0092 75.345 54.5687 72.6621 59.4092C70.6073 63.129 67.9245 63.8581 61.2345 62.5214C56.961 61.6708 54.7151 61.529 52.7968 61.9949C50.8035 62.4809 49.4518 62.3662 47.1717 61.5358C42.7549 59.929 42.3385 60.9349 43.8267 69.556C45.6699 80.2429 49.1651 86.8792 65.5147 110.717C73.2833 122.045 81.2158 133.968 83.1409 137.215C85.066 140.462 86.7999 143.122 86.9843 143.122C87.1754 143.122 89.6125 139.402 92.3977 134.852C95.183 130.302 101.545 120.81 106.542 113.755C126.585 85.4413 132.934 69.4143 131.521 50.6868C130.934 42.8624 132.709 41.3299 137.631 45.4008C139.487 46.9332 140.354 47.3181 140.505 46.67C140.9 45.0024 139.201 42.5181 136.47 40.7763C132.053 37.9543 133.343 35.5307 139.931 34.2953C145.222 33.3029 145.304 33.2421 143.017 32.0404C140.272 30.5957 137.658 31.1695 133.35 34.1602C128.749 37.3535 127.329 37.0565 126.742 32.7965C126.251 29.2252 124.23 25.8767 122.182 25.2489C120.865 24.8438 120.865 24.9046 122.284 29.0159C124.339 34.9974 123.588 36.4556 118.455 36.4556C112.652 36.4556 109.505 38.6024 114.523 39.1358C120.271 39.7434 120.905 40.8438 118.571 46.1771C116.216 51.5645 116.707 52.2868 120.216 48.621C124.326 44.3138 127.234 44.7864 127.52 49.8092C127.855 55.6759 125.186 69.1037 122.243 76.3949C109.908 106.91 67.7402 108.908 53.3429 79.6624C49.6498 72.1552 48.9739 68.1181 51.2677 67.1729C52.8446 66.5248 52.9743 66.6936 54.681 71.5611C56.7631 77.502 56.4695 77.4345 64.9822 73.9712C74.1981 70.2244 78.6627 70.4472 91.3191 75.2742C96.678 77.313 101.675 78.9873 102.412 78.9873C104.508 78.9873 104.139 76.3678 101.887 75.2472C93.8859 71.2775 94.3501 71.7906 96.4254 69.2252C98.842 66.2413 98.7942 65.4581 95.9134 61.0902C92.1725 55.4126 93.0872 49.0328 97.9682 46.751C105.484 43.2404 111.082 54.1569 105.457 61.3535C103.238 64.1889 103.9 64.5602 108.7 63.1898C110.768 62.5957 114.646 62.1096 117.322 62.1096C122.175 62.1096 122.175 62.1096 122.537 57.5527C122.899 52.9957 122.899 52.9957 121.008 54.8522C116.284 59.5105 111.724 55.5678 113.219 48.1147C114.113 43.6657 114.113 43.6657 110.502 43.605C102.289 43.47 103.921 36.5366 113.028 32.8573C118.632 30.5889 118.55 30.7105 116.782 26.9974C112.693 18.4168 123.472 17.6877 129.145 26.1603C131.289 29.367 131.289 29.367 135.46 28.0168C139.085 26.8421 140.068 26.7678 143.003 27.4632C151.052 29.3535 152.867 36.7594 145.631 38.1434C142.102 38.8185 142.102 38.8185 143.856 42.6396C147.277 50.0657 144.362 55.8109 138.825 52.5501C136.34 51.0919 136.34 51.0919 135.446 59.8075C133.425 79.5206 129.486 88.3375 110.72 115.18C103.982 124.813 96.6029 135.953 94.316 139.936C92.0223 143.919 89.6398 147.477 89.0186 147.848C88.3905 148.219 87.1549 148.523 86.2675 148.523C84.9022 148.523 83.4618 146.579 76.9697 135.986C72.744 129.087 64.0333 115.801 57.6095 106.451ZM52.2643 45.9071C52.749 47.21 53.1655 50.3223 53.1928 52.8269C53.2337 56.0472 53.5 57.3569 54.1007 57.2961C54.5717 57.2489 55.9507 57.2489 57.1726 57.2961C61.0092 57.4446 59.0022 49.5662 54.0256 44.9417C51.4656 42.5721 51.097 42.7746 52.2643 45.9071ZM25.2926 51.4835C25.3131 51.9425 26.3917 52.6986 27.6819 53.1645C30.037 54.0084 30.037 54.0084 31.416 49.7889C32.1738 47.4666 33.4094 44.7324 34.1671 43.713C35.744 41.5729 35.5324 41.4581 32.6994 42.9029C30.4876 44.037 25.238 50.1197 25.2926 51.4835Z" fill="white" stroke="white"/>
<path d="M72.8121 17.2151C88.09 12.8067 111.273 16.6615 111.273 23.6151C111.273 26.2008 111.273 26.2008 107.689 24.2767C91.9607 15.8514 70.1907 18.6531 57.3636 30.751C55.2201 32.7763 53.2608 34.4303 53.0151 34.4303C52.7693 34.4303 51.8887 33.9712 51.0559 33.4109C47.5675 31.0683 61.9715 20.3409 72.8121 17.2151Z" fill="white" stroke="white"/>
<path d="M67.2415 31.2234C78.1845 24.3981 93.8583 23.7568 104.446 29.691C106.836 31.0344 106.836 31.0344 105.088 32.3576C103.347 33.6741 103.347 33.6741 98.6028 31.8783C88.0694 27.8817 75.2423 29.961 66.2926 37.1239C63.9648 38.9872 61.9236 40.5061 61.753 40.5061C61.5823 40.5061 60.9406 39.885 60.3262 39.1222C58.8721 37.2994 60.5242 35.4091 67.2415 31.2234Z" fill="white" stroke="white"/>
<path d="M74.8877 43.5624C74.8877 41.547 75.6973 39.6142 77.1383 38.1891C78.5793 36.764 80.5338 35.9634 82.5717 35.9634C84.6096 35.9634 86.5641 36.764 88.0051 38.1891C89.4461 39.6142 90.2557 41.547 90.2557 43.5624C90.2557 45.5777 89.4461 47.5106 88.0051 48.9357C86.5641 50.3607 84.6096 51.1614 82.5717 51.1614C80.5338 51.1614 78.5793 50.3607 77.1383 48.9357C75.6973 47.5106 74.8877 45.5777 74.8877 43.5624Z" fill="white" stroke="white"/>
</svg>
