<svg width="185" height="155" viewBox="0 0 185 155" fill="none" xmlns="http://www.w3.org/2000/svg">
<path d="M57.61 102.875C42.025 81.1253 40.3934 77.4692 38.598 60.2109C38.4206 58.5154 38.2362 58.4313 34.7888 58.4313C32.2971 58.4313 30.7611 58.0754 29.8532 57.2989C29.0613 56.6194 26.9861 56.037 24.6787 55.8429C19.5929 55.4158 19.1355 51.4296 23.4431 45.1268C34.7137 28.6192 61.2964 34.5661 63.8563 54.1734C64.4161 58.4701 65.2148 58.7031 68.5598 55.5193C72.6353 51.6497 75.3455 53.1445 72.6626 57.7842C70.6078 61.3498 67.925 62.0486 61.2349 60.7674C56.9615 59.952 54.7156 59.8161 52.7973 60.2626C50.8039 60.7285 49.4523 60.6185 47.1722 59.8226C42.7554 58.2825 42.339 59.2467 43.8272 67.5102C45.6704 77.7539 49.1656 84.1149 65.5152 106.964C73.2838 117.823 81.2163 129.251 83.1414 132.363C85.0665 135.476 86.8004 138.025 86.9848 138.025C87.1759 138.025 89.613 134.46 92.3982 130.098C95.1835 125.737 101.546 116.638 106.543 109.876C126.586 82.7366 132.934 67.3743 131.521 49.4236C130.934 41.9237 132.709 40.4547 137.631 44.3568C139.488 45.8257 140.355 46.1946 140.505 45.5733C140.901 43.975 139.201 41.5936 136.471 39.9241C132.054 37.2192 133.344 34.8961 139.932 33.7119C145.222 32.7606 145.304 32.7024 143.017 31.5506C140.273 30.1657 137.658 30.7158 133.351 33.5825C128.75 36.6433 127.33 36.3586 126.743 32.2753C126.251 28.8521 124.231 25.6425 122.183 25.0407C120.865 24.6524 120.865 24.7106 122.285 28.6515C124.34 34.3849 123.589 35.7826 118.455 35.7826C112.653 35.7826 109.506 37.8404 114.523 38.3516C120.271 38.934 120.906 39.9888 118.571 45.1009C116.216 50.2649 116.708 50.9573 120.216 47.4435C124.326 43.3149 127.234 43.7679 127.521 48.5824C127.855 54.2057 125.186 67.0767 122.244 74.0654C109.908 103.315 67.7407 105.23 53.3434 77.1974C49.6503 70.0016 48.9744 66.1319 51.2682 65.2259C52.8451 64.6047 52.9748 64.7665 54.6814 69.4321C56.7635 75.1266 56.47 75.0619 64.9827 71.7423C74.1986 68.1508 78.6632 68.3644 91.3196 72.9912C96.6785 74.9455 101.676 76.5503 102.413 76.5503C104.509 76.5503 104.14 74.0395 101.887 72.9653C93.8864 69.1603 94.3506 69.6521 96.4259 67.1931C98.8425 64.3329 98.7947 63.5823 95.9139 59.3955C92.1729 53.9534 93.0877 47.8382 97.9687 45.651C105.485 42.286 111.083 52.7497 105.457 59.6479C103.239 62.3657 103.901 62.7216 108.7 61.408C110.769 60.8386 114.646 60.3726 117.322 60.3726C122.176 60.3726 122.176 60.3726 122.538 56.0047C122.899 51.6367 122.899 51.6367 121.008 53.4163C116.284 57.8813 111.724 54.1022 113.219 46.9581C114.114 42.6937 114.114 42.6937 110.502 42.6355C102.29 42.5061 103.921 35.8603 113.028 32.3336C118.633 30.1593 118.551 30.2758 116.783 26.7167C112.694 18.492 123.473 17.7931 129.146 25.9143C131.289 28.988 131.289 28.988 135.46 27.6938C139.085 26.5678 140.068 26.4967 143.004 27.1632C151.052 28.9751 152.868 36.0738 145.632 37.4004C142.102 38.0475 142.102 38.0475 143.857 41.7101C147.277 48.8283 144.362 54.3351 138.826 51.2096C136.341 49.8119 136.341 49.8119 135.447 58.166C133.426 77.0615 129.487 85.5127 110.721 111.242C103.983 120.476 96.6034 131.153 94.3165 134.971C92.0228 138.789 89.6403 142.199 89.0191 142.555C88.391 142.911 87.1554 143.202 86.268 143.202C84.9027 143.202 83.4622 141.338 76.9702 131.185C72.7445 124.572 64.0338 111.837 57.61 102.875ZM52.2648 44.8421C52.7495 46.091 53.1659 49.0742 53.1932 51.4749C53.2342 54.5616 53.5004 55.817 54.1012 55.7588C54.5722 55.7135 55.9512 55.7135 57.1731 55.7588C61.0097 55.9011 59.0027 48.3494 54.0261 43.9167C51.4661 41.6454 51.0975 41.8395 52.2648 44.8421ZM25.2931 50.1872C25.3135 50.6272 26.3921 51.352 27.6824 51.7985C30.0375 52.6074 30.0375 52.6074 31.4165 48.563C32.1742 46.3369 33.4099 43.7161 34.1676 42.739C35.7445 40.6877 35.5329 40.5777 32.6999 41.9625C30.4881 43.0496 25.2384 48.88 25.2931 50.1872Z" fill="#231F20" stroke="#231F20"/>
<path d="M72.8116 17.3399C88.0895 13.1143 111.273 16.8093 111.273 23.4745C111.273 25.9529 111.273 25.9529 107.689 24.1087C91.9602 16.0328 70.1902 18.7183 57.3631 30.3144C55.2196 32.2557 53.2604 33.8411 53.0146 33.8411C52.7688 33.8411 51.8882 33.4011 51.0554 32.864C47.567 30.6185 61.9711 20.336 72.8116 17.3399Z" fill="#231F20" stroke="#231F20"/>
<path d="M67.241 30.7677C78.184 24.2254 93.8578 23.6107 104.446 29.2987C106.835 30.5865 106.835 30.5865 105.088 31.8548C103.347 33.1166 103.347 33.1166 98.6023 31.3953C88.0689 27.5645 75.2418 29.5576 66.2921 36.4234C63.9643 38.2094 61.9231 39.6654 61.7525 39.6654C61.5818 39.6654 60.9401 39.07 60.3257 38.3388C58.8717 36.5916 60.5237 34.7797 67.241 30.7677Z" fill="#231F20" stroke="#231F20"/>
<path d="M74.8867 42.5949C74.8867 40.6631 75.6963 38.8104 77.1373 37.4444C78.5783 36.0784 80.5328 35.311 82.5707 35.311C84.6086 35.311 86.5631 36.0784 88.0041 37.4444C89.4451 38.8104 90.2547 40.6631 90.2547 42.5949C90.2547 44.5266 89.4451 46.3793 88.0041 47.7453C86.5631 49.1113 84.6086 49.8787 82.5707 49.8787C80.5328 49.8787 78.5783 49.1113 77.1373 47.7453C75.6963 46.3793 74.8867 44.5266 74.8867 42.5949Z" fill="#231F20" stroke="#231F20"/>
</svg>
