<svg width="185" height="156" viewBox="0 0 185 156" fill="none" xmlns="http://www.w3.org/2000/svg">
<path d="M57.6081 103.377C42.023 81.3739 40.3915 77.6751 38.5961 60.2157C38.4186 58.5005 38.2343 58.4154 34.7869 58.4154C32.2952 58.4154 30.7592 58.0553 29.8513 57.2697C29.0594 56.5824 26.9841 55.9932 24.6767 55.7968C19.5909 55.3647 19.1335 51.3321 23.4411 44.9558C34.7118 28.2557 61.2944 34.2719 63.8544 54.1078C64.4142 58.4547 65.2129 58.6903 68.5579 55.4695C72.6334 51.5547 75.3435 53.0669 72.6607 57.7607C70.6059 61.3678 67.923 62.0749 61.233 60.7787C56.9596 59.9538 54.7136 59.8163 52.7953 60.268C50.802 60.7394 49.4503 60.6281 47.1703 59.8229C42.7535 58.2648 42.337 59.2402 43.8252 67.6001C45.6684 77.9632 49.1636 84.3984 65.5132 107.514C73.2819 118.499 81.2144 130.06 83.1394 133.209C85.0645 136.358 86.7985 138.937 86.9828 138.937C87.1739 138.937 89.611 135.33 92.3963 130.918C95.1815 126.505 101.544 117.301 106.541 110.46C126.584 83.004 132.932 67.4626 131.519 49.3027C130.932 41.7153 132.707 40.2292 137.629 44.1768C139.486 45.6628 140.353 46.036 140.503 45.4075C140.899 43.7905 139.199 41.3814 136.469 39.6924C132.052 36.956 133.342 34.6058 139.93 33.4078C145.22 32.4455 145.302 32.3865 143.015 31.2213C140.271 29.8203 137.656 30.3768 133.349 33.2769C128.748 36.3734 127.328 36.0853 126.741 31.9545C126.249 28.4914 124.229 25.2443 122.181 24.6355C120.863 24.2427 120.863 24.3016 122.283 28.2884C124.338 34.0886 123.587 35.5027 118.453 35.5027C112.651 35.5027 109.504 37.5845 114.521 38.1016C120.269 38.6908 120.904 39.7579 118.569 44.9296C116.214 50.1537 116.706 50.8542 120.215 47.2994C124.324 43.1228 127.232 43.581 127.519 48.4516C127.853 54.1405 125.184 67.1615 122.242 74.2317C109.906 103.822 67.7387 105.76 53.3415 77.4002C49.6483 70.1205 48.9725 66.2057 51.2662 65.2892C52.8431 64.6607 52.9728 64.8244 54.6795 69.5444C56.7616 75.3053 56.468 75.2398 64.9808 71.8815C74.1966 68.2482 78.6612 68.4642 91.3177 73.145C96.6765 75.122 101.674 76.7455 102.411 76.7455C104.507 76.7455 104.138 74.2055 101.885 73.1188C93.8845 69.2695 94.3487 69.767 96.4239 67.2793C98.8406 64.3858 98.7928 63.6264 95.912 59.3908C92.171 53.8852 93.0857 47.6988 97.9667 45.4861C105.483 42.0819 111.081 52.6676 105.455 59.6461C103.237 62.3956 103.899 62.7557 108.698 61.4268C110.767 60.8507 114.644 60.3793 117.32 60.3793C122.174 60.3793 122.174 60.3793 122.536 55.9604C122.897 51.5416 122.897 51.5416 121.006 53.3418C116.282 57.8589 111.722 54.0358 113.217 46.8085C114.112 42.4943 114.112 42.4943 110.5 42.4354C102.288 42.3045 103.92 35.5812 113.026 32.0134C118.631 29.8138 118.549 29.9316 116.781 26.331C112.692 18.0105 123.471 17.3034 129.144 25.5193C131.287 28.6289 131.287 28.6289 135.458 27.3196C139.083 26.1805 140.066 26.1085 143.002 26.7827C151.05 28.6158 152.866 35.7973 145.63 37.1393C142.101 37.7939 142.101 37.7939 143.855 41.4993C147.275 48.7004 144.36 54.2714 138.824 51.1095C136.339 49.6955 136.339 49.6955 135.445 58.147C133.424 77.2627 129.485 85.8124 110.719 111.841C103.981 121.183 96.6014 131.985 94.3145 135.847C92.0208 139.71 89.6383 143.16 89.0171 143.52C88.3891 143.88 87.1535 144.174 86.266 144.174C84.9007 144.174 83.4603 142.289 76.9682 132.018C72.7426 125.327 64.0319 112.444 57.6081 103.377ZM52.2629 44.6678C52.7476 45.9312 53.164 48.9492 53.1913 51.3779C53.2323 54.5006 53.4985 55.7706 54.0992 55.7117C54.5703 55.6659 55.9492 55.6659 57.1712 55.7117C61.0077 55.8557 59.0007 48.2159 54.0241 43.7316C51.4642 41.4338 51.0955 41.6302 52.2629 44.6678ZM25.2911 50.0752C25.3116 50.5203 26.3902 51.2535 27.6804 51.7052C30.0356 52.5235 30.0356 52.5235 31.4145 48.432C32.1723 46.18 33.4079 43.5287 34.1656 42.5401C35.7426 40.4649 35.531 40.3536 32.6979 41.7546C30.4861 42.8544 25.2365 48.7528 25.2911 50.0752Z" fill="#FEC90F" stroke="#FEC90F"/>
<path d="M72.8116 16.8453C88.0895 12.5704 111.273 16.3085 111.273 23.0513C111.273 25.5586 111.273 25.5586 107.689 23.6929C91.9602 15.5229 70.1902 18.2397 57.3631 29.971C55.2196 31.9349 53.2604 33.5388 53.0146 33.5388C52.7688 33.5388 51.8882 33.0937 51.0554 32.5503C47.567 30.2787 61.9711 19.8763 72.8116 16.8453Z" fill="#FEC90F" stroke="#FEC90F"/>
<path d="M67.243 30.4292C78.186 23.8107 93.8598 23.1888 104.448 28.9431C106.837 30.2459 106.837 30.2459 105.089 31.529C103.349 32.8056 103.349 32.8056 98.6042 31.0642C88.0708 27.1887 75.2437 29.205 66.2941 36.1508C63.9662 37.9576 61.9251 39.4306 61.7544 39.4306C61.5838 39.4306 60.9421 38.8283 60.3277 38.0886C58.8736 36.321 60.5256 34.488 67.243 30.4292Z" fill="#FEC90F" stroke="#FEC90F"/>
<path d="M74.8867 42.3946C74.8867 40.4403 75.6963 38.566 77.1373 37.1841C78.5783 35.8022 80.5328 35.0259 82.5707 35.0259C84.6086 35.0259 86.5631 35.8022 88.0041 37.1841C89.4451 38.566 90.2547 40.4403 90.2547 42.3946C90.2547 44.3489 89.4451 46.2232 88.0041 47.6051C86.5631 48.987 84.6086 49.7633 82.5707 49.7633C80.5328 49.7633 78.5783 48.987 77.1373 47.6051C75.6963 46.2232 74.8867 44.3489 74.8867 42.3946Z" fill="#FEC90F" stroke="#FEC90F"/>
<path d="M52.266 44.6682C51.0987 41.6306 51.4673 41.4342 54.0273 43.732C59.0038 48.2164 61.0108 55.8561 57.1743 55.7121C55.9524 55.6663 54.5734 55.6663 54.1024 55.7121C53.5016 55.771 53.2354 54.501 53.1944 51.3783C53.1671 48.9496 52.7507 45.9317 52.266 44.6682Z" stroke="#FEC90F"/>
<path d="M25.2934 50.0754C25.2388 48.7531 30.4884 42.8547 32.7002 41.7549C35.5332 40.3539 35.7449 40.4652 34.1679 42.5404C33.4102 43.529 32.1746 46.1803 31.4168 48.4323C30.0379 52.5238 30.0379 52.5238 27.6827 51.7055C26.3925 51.2538 25.3139 50.5206 25.2934 50.0754Z" stroke="#FEC90F"/>
</svg>
