<svg width="151" height="151" viewBox="0 0 151 151" fill="none" xmlns="http://www.w3.org/2000/svg">
<path d="M42.3519 119.431C42.3989 112.438 42.3989 112.438 36.1885 107.979C18.0391 94.9421 18.3505 70.3653 36.8171 58.536L42.0111 55.2092C42.7573 15.1744 39.608 17.1617 77.6518 17.1617C110.531 17.1617 109.473 17.0045 112.27 22.2305C113.674 24.8593 114.65 25.7711 118.228 27.7836C137.799 38.8142 137.811 66.3216 118.246 78.3018C113.61 81.1381 113.398 81.3645 113.398 83.4901C113.398 85.5403 113.263 85.7101 111.636 85.7101C110.026 85.7101 109.873 85.5277 109.873 83.5844C109.873 81.4651 109.873 81.4651 104.609 81.1947C84.1559 80.1507 73.0924 55.8381 84.5202 37.0533L87.2523 32.5694L45.8301 32.2235C45.8301 54.8947 45.8301 54.8947 49.091 54.8947C62.305 54.8947 73.868 65.6487 75.7599 79.6979C77.9808 96.1873 65.09 112.098 49.5023 112.117C45.8301 112.123 45.8301 112.123 45.8301 114.01C45.8301 115.896 45.8301 115.896 77.8515 115.896H109.873C109.873 88.8545 109.873 88.8545 111.636 88.8545C113.398 88.8545 113.398 88.8545 113.398 107.809C113.398 129.782 113.181 130.971 108.668 133.423C106.26 134.738 105.625 134.763 77.4873 134.763C48.7679 134.763 48.7679 134.763 46.6468 133.122C43.1979 130.455 42.299 127.575 42.3519 119.431ZM45.8301 122.846C45.8301 126.128 46.8055 128.896 48.4212 130.222C49.1263 130.801 56.4001 130.99 77.8985 130.99C106.436 130.99 106.436 130.99 108.157 129.153C109.679 127.525 109.873 126.877 109.873 119.67H77.8515C45.8301 119.67 45.8301 119.67 45.8301 122.846ZM37.0169 100.747C37.0169 104.715 38.4505 105.948 45.0957 107.696C46.4706 108.054 49.2027 108.212 51.171 108.035C53.1392 107.866 56.312 107.048 58.2215 106.224C61.694 104.721 61.694 104.721 61.694 100.533C61.694 93.6214 61.077 93.2567 49.4318 93.2567C38.1803 93.2567 37.0169 93.961 37.0169 100.747ZM62.0876 63.0451C41.1356 48.2978 16.1707 75.8869 30.783 97.64C32.9041 100.803 32.9041 100.803 33.521 97.8161C33.8618 96.1747 34.6608 94.0554 35.2954 93.112C35.9299 92.1624 37.2226 90.9612 38.1626 90.4393C39.8783 89.4897 39.8783 89.4897 37.8454 86.2509C29.4493 72.906 43.3918 56.882 56.5764 64.7242C64.1323 69.2207 66.0477 82.1191 60.0136 87.8546C58.7503 89.0557 58.7503 89.0557 60.7127 90.3701C63.5389 92.263 65.2016 95.0364 65.3661 98.1305C65.5424 101.363 65.5248 101.357 67.6164 98.5393C75.7246 87.6219 73.1041 70.7992 62.0876 63.0451ZM38.3054 78.0075C38.3054 81.0982 39.4525 84.0623 41.4943 86.2478C43.5361 88.4332 46.3054 89.661 49.193 89.661C52.0805 89.661 54.8498 88.4332 56.8917 86.2478C58.9335 84.0623 60.0805 81.0982 60.0805 78.0075C60.0805 74.9168 58.9335 71.9527 56.8917 69.7672C54.8498 67.5817 52.0805 66.354 49.193 66.354C46.3054 66.354 43.5361 67.5817 41.4943 69.7672C39.4525 71.9527 38.3054 74.9168 38.3054 78.0075ZM94.0091 70.0068C94.0091 74.1637 94.4204 74.6857 99.1502 76.5535C100.895 77.239 103.287 77.4843 107.082 77.3773C111.506 77.2453 113.063 76.9246 115.455 75.6479C118.392 74.0757 118.392 74.0757 118.563 70.2144C118.874 63.3218 117.952 62.7558 106.348 62.7558C94.8787 62.7558 94.0091 63.2652 94.0091 70.0068ZM115.866 30.7896C95.1431 20.2873 74.526 46.5306 87.4286 67.0008C88.4627 68.6422 89.5731 69.988 89.8963 69.988C90.2194 69.988 90.4838 68.9629 90.4838 67.7051C90.4838 64.8311 92.3875 61.4792 94.8141 60.0642C96.6825 58.9825 96.6825 58.9825 94.6319 55.6683C90.2136 48.5304 92.0644 39.072 98.7507 34.6195C111.7 26.0038 126.418 42.1284 118.04 55.75C115.96 59.1334 115.96 59.1334 117.975 60.2969C120.343 61.6615 122.211 65.0324 122.211 67.9378C122.211 70.4533 122.699 70.5225 124.427 68.2711C133.51 56.4229 129.203 37.5564 115.866 30.7896ZM95.1842 47.6469C95.1842 50.7337 96.3299 53.694 98.3691 55.8767C100.408 58.0594 103.174 59.2856 106.058 59.2856C108.942 59.2856 111.708 58.0594 113.747 55.8767C115.786 53.694 116.932 50.7337 116.932 47.6469C116.932 44.5601 115.786 41.5997 113.747 39.417C111.708 37.2343 108.942 36.0081 106.058 36.0081C103.174 36.0081 100.408 37.2343 98.3691 39.417C96.3299 41.5997 95.1842 44.5601 95.1842 47.6469ZM77.8515 20.935C45.6304 20.935 46.6233 20.7715 46.071 26.1422C45.8301 28.4816 45.8301 28.4816 69.1323 28.4816C92.4286 28.4816 92.4286 28.4816 96.2653 26.7962C98.8917 25.6454 101.547 25.0291 104.691 24.8341C109.791 24.5134 109.961 24.375 107.793 22.35C106.283 20.935 106.283 20.935 77.8515 20.935Z" fill="#FEC90F" stroke="#FEC90F"/>
<path d="M115.865 30.7894C129.203 37.5562 133.509 56.4227 124.426 68.2709C122.698 70.5223 122.211 70.4531 122.211 67.9376C122.211 65.0322 120.342 61.6613 117.974 60.2967C115.959 59.1332 115.959 59.1332 118.039 55.7498C126.418 42.1282 111.699 26.0036 98.7499 34.6193C92.0636 39.0718 90.2128 48.5303 94.6311 55.6681C96.6817 58.9823 96.6817 58.9823 94.8133 60.064C92.3867 61.479 90.4831 64.8309 90.4831 67.7049C90.4831 68.9627 90.2187 69.9878 89.8955 69.9878C89.5724 69.9878 88.4619 68.642 87.4278 67.0006C74.5252 46.5304 95.1423 20.2871 115.865 30.7894Z" stroke="#FEC90F"/>
<path d="M62.0844 63.0451C73.101 70.7992 75.7214 87.6219 67.6133 98.5393C65.5216 101.357 65.5392 101.363 65.3629 98.1305C65.1984 95.0364 63.5357 92.263 60.7096 90.3701C58.7471 89.0557 58.7471 89.0557 60.0104 87.8546C66.0445 82.1191 64.1291 69.2207 56.5732 64.7242C43.3886 56.882 29.4461 72.906 37.8422 86.2509C39.8751 89.4897 39.8751 89.4897 38.1594 90.4393C37.2194 90.9612 35.9268 92.1624 35.2922 93.112C34.6576 94.0554 33.8586 96.1747 33.5178 97.8161C32.9009 100.803 32.9009 100.803 30.7798 97.64C16.1675 75.8869 41.1324 48.2978 62.0844 63.0451Z" stroke="#FEC90F"/>
<path d="M45.8281 122.845C45.8281 119.669 45.8281 119.669 77.8495 119.669H109.871C109.871 126.876 109.677 127.524 108.155 129.153C106.434 130.989 106.434 130.989 77.8965 130.989C56.3981 130.989 49.1243 130.801 48.4192 130.222C46.8035 128.895 45.8281 126.128 45.8281 122.845ZM66.9799 123.443V127.216H88.7192V123.443H66.9799Z" stroke="#FEC90F"/>
<path d="M77.8503 20.9346C106.282 20.9346 106.282 20.9346 107.792 22.3496C109.96 24.3746 109.789 24.513 104.689 24.8337C101.546 25.0287 98.8904 25.645 96.264 26.7958C92.4273 28.4812 92.4273 28.4812 69.131 28.4812C45.8289 28.4812 45.8289 28.4812 46.0698 26.1418C46.6221 20.7711 45.6291 20.9346 77.8503 20.9346Z" stroke="#FEC90F"/>
<path d="M95.1836 47.6466C95.1836 44.5598 96.3292 41.5994 98.3684 39.4167C100.408 37.234 103.173 36.0078 106.057 36.0078C108.941 36.0078 111.707 37.234 113.746 39.4167C115.785 41.5994 116.931 44.5598 116.931 47.6466C116.931 50.7334 115.785 53.6937 113.746 55.8764C111.707 58.0591 108.941 59.2853 106.057 59.2853C103.173 59.2853 100.408 58.0591 98.3684 55.8764C96.3292 53.6937 95.1836 50.7334 95.1836 47.6466Z" stroke="#FEC90F"/>
<path d="M38.3047 78.0061C38.3047 74.9154 39.4518 71.9512 41.4936 69.7658C43.5354 67.5803 46.3047 66.3525 49.1923 66.3525C52.0798 66.3525 54.8491 67.5803 56.8909 69.7658C58.9328 71.9512 60.0798 74.9154 60.0798 78.0061C60.0798 81.0968 58.9328 84.0609 56.8909 86.2464C54.8491 88.4318 52.0798 89.6596 49.1923 89.6596C46.3047 89.6596 43.5354 88.4318 41.4936 86.2464C39.4518 84.0609 38.3047 81.0968 38.3047 78.0061Z" stroke="#FEC90F"/>
<path d="M94.0078 70.0064C94.0078 63.2648 94.8774 62.7554 106.346 62.7554C117.95 62.7554 118.873 63.3214 118.561 70.2139C118.391 74.0753 118.391 74.0753 115.453 75.6475C113.062 76.9241 111.505 77.2449 107.081 77.3769C103.285 77.4838 100.894 77.2386 99.1489 76.5531C94.4191 74.6853 94.0078 74.1633 94.0078 70.0064Z" stroke="#FEC90F"/>
<path d="M37.0156 100.746C37.0156 93.9607 38.179 93.2563 49.4305 93.2563C61.0757 93.2563 61.6927 93.6211 61.6927 100.533C61.6927 104.721 61.6927 104.721 58.2203 106.224C56.3107 107.048 53.138 107.865 51.1697 108.035C49.2014 108.211 46.4693 108.054 45.0944 107.696C38.4492 105.947 37.0156 104.715 37.0156 100.746Z" stroke="#FEC90F"/>
<path d="M76.9331 96.6902C79.9473 98.6838 92.3915 93.093 97.1331 87.6091C100.376 83.8547 100.376 83.8547 101.745 85.0747C104.912 87.9047 93.0672 97.9039 84.2422 99.8535C81.8862 100.375 79.1541 100.803 78.167 100.803C77.1858 100.803 76.2751 100.589 76.1399 100.325C75.7698 99.5768 76.4631 96.382 76.9331 96.6902Z" fill="#FEC90F" stroke="#FEC90F"/>
<path d="M59.1375 43.2035C66.0295 37.0845 80.2893 33.2294 79.8075 37.619C79.6195 39.3484 79.4608 39.4239 74.7957 40.1283C68.3562 41.0967 63.3796 43.7632 58.9495 48.6119C57.0693 50.6809 55.3243 52.3726 55.0834 52.3726C54.8425 52.3789 54.2139 51.9324 53.6909 51.379C52.4277 50.0646 53.9025 47.8573 59.1375 43.2035Z" fill="#FEC90F" stroke="#FEC90F"/>
<path d="M66.9805 123.443H88.7198V127.216H66.9805V123.443Z" fill="#FEC90F" stroke="#FEC90F"/>
</svg>
