<svg width="151" height="150" viewBox="0 0 151 150" fill="none" xmlns="http://www.w3.org/2000/svg">
<path d="M42.3499 118.755C42.3969 111.843 42.3969 111.843 36.1865 107.435C18.0371 94.5486 18.3485 70.255 36.8152 58.562L42.0091 55.2735C42.7553 15.7001 39.606 17.6645 77.6498 17.6645C110.529 17.6645 109.471 17.5091 112.268 22.6749C113.672 25.2733 114.648 26.1747 118.226 28.1639C137.797 39.0674 137.809 66.2579 118.244 78.1001C113.608 80.9037 113.396 81.1275 113.396 83.2286C113.396 85.2551 113.261 85.423 111.634 85.423C110.024 85.423 109.871 85.2427 109.871 83.3218C109.871 81.2269 109.871 81.2269 104.607 80.9596C84.154 79.9277 73.0904 55.8952 84.5183 37.3269L87.2504 32.8946L45.8282 32.5527C45.8282 54.9627 45.8282 54.9627 49.0891 54.9627C62.3031 54.9627 73.866 65.5927 75.7579 79.4801C77.9789 95.7795 65.088 111.507 49.5004 111.526C45.8282 111.532 45.8282 111.532 45.8282 113.397C45.8282 115.262 45.8282 115.262 77.8496 115.262H109.871C109.871 88.5312 109.871 88.5312 111.634 88.5312C113.396 88.5312 113.396 88.5312 113.396 107.267C113.396 128.987 113.179 130.162 108.667 132.587C106.258 133.886 105.623 133.911 77.4853 133.911C48.7659 133.911 48.7659 133.911 46.6449 132.288C43.196 129.652 42.297 126.805 42.3499 118.755ZM45.8282 122.131C45.8282 125.376 46.8035 128.111 48.4193 129.422C49.1243 129.994 56.3982 130.181 77.8966 130.181C106.434 130.181 106.434 130.181 108.155 128.366C109.677 126.756 109.871 126.115 109.871 118.991H77.8496C45.8282 118.991 45.8282 118.991 45.8282 122.131ZM37.015 100.286C37.015 104.209 38.4486 105.427 45.0938 107.155C46.4686 107.51 49.2007 107.665 51.169 107.491C53.1373 107.323 56.3101 106.515 58.2196 105.701C61.692 104.215 61.692 104.215 61.692 100.075C61.692 93.2432 61.0751 92.8826 49.4299 92.8826C38.1783 92.8826 37.015 93.5789 37.015 100.286ZM62.0857 63.0191C41.1337 48.4417 16.1687 75.713 30.7811 97.2154C32.9021 100.342 32.9021 100.342 33.519 97.3895C33.8598 95.767 34.6589 93.6721 35.2934 92.7396C35.928 91.801 37.2206 90.6136 38.1607 90.0977C39.8763 89.159 39.8763 89.159 37.8434 85.9576C29.4473 72.7664 43.3899 56.9271 56.5745 64.6789C64.1303 69.1236 66.0457 81.8734 60.0116 87.5428C58.7484 88.7301 58.7484 88.7301 60.7108 90.0293C63.5369 91.9004 65.1997 94.6419 65.3642 97.7003C65.5404 100.896 65.5228 100.889 67.6145 98.1044C75.7227 87.3127 73.1022 70.6839 62.0857 63.0191ZM38.3035 77.8091C38.3035 80.8642 39.4505 83.7942 41.4924 85.9545C43.5342 88.1148 46.3035 89.3284 49.191 89.3284C52.0786 89.3284 54.8479 88.1148 56.8897 85.9545C58.9315 83.7942 60.0786 80.8642 60.0786 77.8091C60.0786 74.7541 58.9315 71.8241 56.8897 69.6638C54.8479 67.5035 52.0786 66.2899 49.191 66.2899C46.3035 66.2899 43.5342 67.5035 41.4924 69.6638C39.4505 71.8241 38.3035 74.7541 38.3035 77.8091ZM94.0072 69.9007C94.0072 74.0097 94.4185 74.5257 99.1482 76.3719C100.893 77.0495 103.285 77.2919 107.08 77.1863C111.504 77.0557 113.061 76.7387 115.453 75.4768C118.39 73.9227 118.39 73.9227 118.561 70.1058C118.872 63.2927 117.95 62.7332 106.346 62.7332C94.8768 62.7332 94.0072 63.2367 94.0072 69.9007ZM115.864 31.1353C95.1411 20.754 74.5241 46.6949 87.4266 66.9292C88.4607 68.5517 89.5712 69.882 89.8943 69.882C90.2175 69.882 90.4819 68.8688 90.4819 67.6255C90.4819 64.7846 92.3855 61.4713 94.8121 60.0726C96.6805 59.0034 96.6805 59.0034 94.63 55.7273C90.2116 48.6717 92.0624 39.3223 98.7487 34.9211C111.698 26.4047 126.416 42.3435 118.038 55.8081C115.958 59.1526 115.958 59.1526 117.973 60.3026C120.341 61.6515 122.21 64.9835 122.21 67.8555C122.21 70.342 122.697 70.4104 124.425 68.185C133.508 56.4733 129.201 37.8242 115.864 31.1353ZM95.1823 47.7983C95.1823 50.8496 96.3279 53.7758 98.3671 55.9334C100.406 58.0909 103.172 59.303 106.056 59.303C108.94 59.303 111.706 58.0909 113.745 55.9334C115.784 53.7758 116.93 50.8496 116.93 47.7983C116.93 44.7471 115.784 41.8209 113.745 39.6633C111.706 37.5058 108.94 36.2937 106.056 36.2937C103.172 36.2937 100.406 37.5058 98.3671 39.6633C96.3279 41.8209 95.1823 44.7471 95.1823 47.7983ZM77.8496 21.3943C45.6284 21.3943 46.6214 21.2327 46.0691 26.5414C45.8282 28.8539 45.8282 28.8539 69.1304 28.8539C92.4267 28.8539 92.4267 28.8539 96.2634 27.1879C98.8897 26.0504 101.545 25.4411 104.689 25.2484C109.789 24.9314 109.959 24.7946 107.791 22.793C106.281 21.3943 106.281 21.3943 77.8496 21.3943Z" fill="#231F20" stroke="#231F20"/>
<path d="M115.865 31.1354C129.203 37.8242 133.509 56.4733 124.426 68.185C122.698 70.4105 122.211 70.3421 122.211 67.8555C122.211 64.9836 120.342 61.6516 117.974 60.3026C115.959 59.1526 115.959 59.1526 118.039 55.8082C126.418 42.3435 111.699 26.4047 98.7499 34.9212C92.0636 39.3224 90.2128 48.6718 94.6311 55.7274C96.6817 59.0034 96.6817 59.0034 94.8133 60.0726C92.3867 61.4713 90.4831 64.7846 90.4831 67.6255C90.4831 68.8688 90.2187 69.8821 89.8955 69.8821C89.5724 69.8821 88.4619 68.5518 87.4278 66.9293C74.5252 46.695 95.1423 20.754 115.865 31.1354Z" stroke="#231F20"/>
<path d="M62.0864 63.0192C73.1029 70.684 75.7234 87.3128 67.6152 98.1044C65.5235 100.889 65.5412 100.896 65.3649 97.7004C65.2004 94.6419 63.5376 91.9005 60.7115 90.0293C58.7491 88.7301 58.7491 88.7301 60.0123 87.5428C66.0465 81.8735 64.131 69.1237 56.5752 64.679C43.3906 56.9271 29.448 72.7665 37.8441 85.9576C39.877 89.1591 39.877 89.1591 38.1614 90.0977C37.2213 90.6137 35.9287 91.801 35.2942 92.7397C34.6596 93.6721 33.8605 95.7671 33.5198 97.3895C32.9028 100.342 32.9028 100.342 30.7818 97.2155C16.1694 75.713 41.1344 48.4418 62.0864 63.0192Z" stroke="#231F20"/>
<path d="M45.8281 122.131C45.8281 118.992 45.8281 118.992 77.8495 118.992H109.871C109.871 126.116 109.677 126.756 108.155 128.366C106.434 130.181 106.434 130.181 77.8965 130.181C56.3981 130.181 49.1243 129.995 48.4192 129.423C46.8035 128.111 45.8281 125.376 45.8281 122.131ZM66.9799 122.722V126.451H88.7192V122.722H66.9799Z" stroke="#231F20"/>
<path d="M77.8503 21.3946C106.282 21.3946 106.282 21.3946 107.792 22.7933C109.96 24.7949 109.789 24.9317 104.689 25.2487C101.546 25.4414 98.8904 26.0506 96.264 27.1882C92.4273 28.8542 92.4273 28.8542 69.131 28.8542C45.8289 28.8542 45.8289 28.8542 46.0698 26.5417C46.6221 21.2329 45.6291 21.3946 77.8503 21.3946Z" stroke="#231F20"/>
<path d="M95.1836 47.7986C95.1836 44.7474 96.3292 41.8211 98.3684 39.6636C100.408 37.506 103.173 36.2939 106.057 36.2939C108.941 36.2939 111.707 37.506 113.746 39.6636C115.785 41.8211 116.931 44.7474 116.931 47.7986C116.931 50.8498 115.785 53.7761 113.746 55.9336C111.707 58.0912 108.941 59.3032 106.057 59.3032C103.173 59.3032 100.408 58.0912 98.3684 55.9336C96.3292 53.7761 95.1836 50.8498 95.1836 47.7986Z" stroke="#231F20"/>
<path d="M38.3047 77.8078C38.3047 74.7527 39.4518 71.8228 41.4936 69.6625C43.5354 67.5022 46.3047 66.2886 49.1923 66.2886C52.0798 66.2886 54.8491 67.5022 56.8909 69.6625C58.9328 71.8228 60.0798 74.7527 60.0798 77.8078C60.0798 80.8629 58.9328 83.7929 56.8909 85.9532C54.8491 88.1135 52.0798 89.3271 49.1923 89.3271C46.3047 89.3271 43.5354 88.1135 41.4936 85.9532C39.4518 83.7929 38.3047 80.8629 38.3047 77.8078Z" stroke="#231F20"/>
<path d="M94.0078 69.9009C94.0078 63.2369 94.8774 62.7334 106.346 62.7334C117.95 62.7334 118.873 63.2929 118.561 70.106C118.391 73.9229 118.391 73.9229 115.453 75.477C113.062 76.7389 111.505 77.0559 107.081 77.1865C103.285 77.2922 100.894 77.0497 99.1489 76.3721C94.4191 74.5259 94.0078 74.0099 94.0078 69.9009Z" stroke="#231F20"/>
<path d="M37.0156 100.287C37.0156 93.579 38.179 92.8828 49.4305 92.8828C61.0757 92.8828 61.6927 93.2434 61.6927 100.075C61.6927 104.215 61.6927 104.215 58.2203 105.701C56.3107 106.515 53.138 107.323 51.1697 107.491C49.2014 107.665 46.4693 107.51 45.0944 107.156C38.4492 105.427 37.0156 104.209 37.0156 100.287Z" stroke="#231F20"/>
<path d="M76.9331 96.277C79.9473 98.2476 92.3915 92.7212 97.1331 87.3006C100.376 83.5894 100.376 83.5894 101.745 84.7954C104.912 87.5927 93.0672 97.4768 84.2422 99.4039C81.8862 99.9198 79.1541 100.343 78.167 100.343C77.1858 100.343 76.2751 100.131 76.1399 99.8701C75.7698 99.1303 76.4631 95.9724 76.9331 96.277Z" fill="#231F20" stroke="#231F20"/>
<path d="M59.1375 43.4065C66.0295 37.358 80.2893 33.5473 79.8075 37.8863C79.6195 39.5959 79.4608 39.6704 74.7957 40.3667C68.3562 41.324 63.3796 43.9598 58.9495 48.7526C57.0693 50.7978 55.3243 52.47 55.0834 52.47C54.8425 52.4762 54.2139 52.0348 53.6909 51.4878C52.4277 50.1886 53.9025 48.0066 59.1375 43.4065Z" fill="#231F20" stroke="#231F20"/>
<path d="M66.9805 122.721H88.7198V126.451H66.9805V122.721Z" fill="#231F20" stroke="#231F20"/>
</svg>
