<svg width="151" height="155" viewBox="0 0 151 155" fill="none" xmlns="http://www.w3.org/2000/svg">
<path d="M42.3509 122.975C42.3979 115.763 42.3979 115.764 36.1875 111.165C18.0381 97.7212 18.3495 72.3765 36.8162 60.1775L42.0101 56.7468C42.7563 15.461 39.607 17.5104 77.6508 17.5104C110.53 17.5104 109.472 17.3482 112.269 22.7376C113.673 25.4484 114.649 26.3888 118.227 28.4641C137.798 39.8394 137.81 68.2064 118.245 80.561C113.609 83.4859 113.397 83.7194 113.397 85.9114C113.397 88.0256 113.262 88.2007 111.635 88.2007C110.025 88.2007 109.872 88.0127 109.872 86.0087C109.872 83.8231 109.872 83.8231 104.608 83.5443C84.155 82.4677 73.0914 57.3953 84.5192 38.0235L87.2513 33.3995L45.8292 33.0428C45.8292 56.4225 45.8292 56.4225 49.0901 56.4225C62.304 56.4225 73.867 67.5125 75.7589 82.0007C77.9798 99.0053 65.089 115.413 49.5013 115.433C45.8292 115.439 45.8292 115.439 45.8292 117.385C45.8292 119.33 45.8292 119.33 77.8506 119.33H109.872C109.872 91.4434 109.872 91.4434 111.635 91.4434C113.397 91.4434 113.397 91.4434 113.397 110.99C113.397 133.65 113.18 134.876 108.667 137.405C106.259 138.761 105.624 138.787 77.4863 138.787C48.7669 138.787 48.7669 138.787 46.6459 137.094C43.1969 134.344 42.298 131.374 42.3509 122.975ZM45.8292 126.497C45.8292 129.882 46.8045 132.736 48.4203 134.104C49.1253 134.701 56.3992 134.895 77.8976 134.895C106.435 134.895 106.435 134.895 108.156 133.002C109.678 131.322 109.872 130.654 109.872 123.222H77.8506C45.8292 123.222 45.8292 123.222 45.8292 126.497ZM37.0159 103.707C37.0159 107.799 38.4496 109.071 45.0947 110.874C46.4696 111.243 49.2017 111.405 51.17 111.224C53.1383 111.049 56.311 110.206 58.2206 109.356C61.693 107.806 61.693 107.806 61.693 103.487C61.693 96.3593 61.0761 95.9832 49.4308 95.9832C38.1793 95.9832 37.0159 96.7095 37.0159 103.707ZM62.0866 64.8275C41.1346 49.6194 16.1697 78.0706 30.782 100.503C32.9031 103.766 32.9031 103.766 33.52 100.685C33.8608 98.9924 34.6599 96.8068 35.2944 95.834C35.929 94.8547 37.2216 93.616 38.1617 93.0777C39.8773 92.0984 39.8773 92.0984 37.8444 88.7585C29.4483 74.9966 43.3908 58.4719 56.5754 66.5591C64.1313 71.1961 66.0467 84.4976 60.0126 90.4122C58.7494 91.651 58.7494 91.651 60.7118 93.0064C63.5379 94.9585 65.2006 97.8185 65.3652 101.009C65.5414 104.343 65.5238 104.336 67.6155 101.431C75.7236 90.1723 73.1032 72.824 62.0866 64.8275ZM38.3044 80.2575C38.3044 83.4448 39.4515 86.5015 41.4933 88.7553C43.5351 91.009 46.3044 92.2752 49.192 92.2752C52.0796 92.2752 54.8489 91.009 56.8907 88.7553C58.9325 86.5015 60.0796 83.4448 60.0796 80.2575C60.0796 77.0702 58.9325 74.0134 56.8907 71.7597C54.8489 69.5059 52.0796 68.2398 49.192 68.2398C46.3044 68.2398 43.5351 69.5059 41.4933 71.7597C39.4515 74.0134 38.3044 77.0702 38.3044 80.2575ZM94.0082 72.0068C94.0082 76.2936 94.4194 76.8319 99.1492 78.7581C100.894 79.465 103.286 79.7179 107.081 79.6076C111.505 79.4715 113.062 79.1407 115.454 77.8242C118.391 76.2028 118.391 76.2028 118.562 72.2208C118.873 65.1129 117.951 64.5292 106.347 64.5292C94.8777 64.5292 94.0082 65.0545 94.0082 72.0068ZM115.865 31.5641C95.1421 20.7336 74.525 47.797 87.4276 68.9068C88.4617 70.5995 89.5722 71.9874 89.8953 71.9874C90.2185 71.9874 90.4829 70.9302 90.4829 69.6332C90.4829 66.6694 92.3865 63.2127 94.8131 61.7535C96.6815 60.638 96.6815 60.638 94.631 57.2202C90.2126 49.8593 92.0634 40.1053 98.7497 35.5137C111.699 26.6288 126.417 43.2572 118.039 57.3045C115.959 60.7936 115.959 60.7936 117.974 61.9934C120.342 63.4007 122.21 66.8769 122.21 69.8731C122.21 72.4673 122.698 72.5386 124.426 70.2169C133.509 57.9984 129.202 38.5424 115.865 31.5641ZM95.1833 48.9481C95.1833 52.1314 96.3289 55.1842 98.3681 57.4351C100.407 59.686 103.173 60.9506 106.057 60.9506C108.941 60.9506 111.707 59.686 113.746 57.4351C115.785 55.1842 116.931 52.1314 116.931 48.9481C116.931 45.7649 115.785 42.712 113.746 40.4611C111.707 38.2102 108.941 36.9457 106.057 36.9457C103.173 36.9457 100.407 38.2102 98.3681 40.4611C96.3289 42.712 95.1833 45.7649 95.1833 48.9481ZM77.8506 21.4016C45.6294 21.4016 46.6224 21.233 46.0701 26.7715C45.8292 29.184 45.8292 29.184 69.1313 29.184C92.4277 29.184 92.4276 29.184 96.2643 27.4459C98.8907 26.2591 101.546 25.6235 104.69 25.4225C109.79 25.0917 109.96 24.9491 107.792 22.8608C106.282 21.4016 106.282 21.4016 77.8506 21.4016Z" fill="white" stroke="white"/>
<path d="M115.864 31.5644C129.202 38.5427 133.508 57.9987 124.425 70.2172C122.697 72.5389 122.21 72.4676 122.21 69.8734C122.21 66.8772 120.341 63.401 117.973 61.9937C115.958 60.7939 115.958 60.7939 118.038 57.3048C126.417 43.2575 111.698 26.6291 98.7489 35.514C92.0626 40.1056 90.2118 49.8596 94.6302 57.2205C96.6807 60.6383 96.6807 60.6383 94.8123 61.7538C92.3857 63.213 90.4821 66.6697 90.4821 69.6335C90.4821 70.9305 90.2177 71.9877 89.8945 71.9877C89.5714 71.9877 88.4609 70.5998 87.4268 68.9071C74.5243 47.7973 95.1413 20.7339 115.864 31.5644Z" stroke="white"/>
<path d="M62.0864 64.8278C73.1029 72.8242 75.7234 90.1725 67.6152 101.431C65.5235 104.337 65.5412 104.343 65.3649 101.01C65.2004 97.8188 63.5376 94.9587 60.7115 93.0066C58.7491 91.6512 58.7491 91.6512 60.0123 90.4125C66.0465 84.4978 64.131 71.1964 56.5752 66.5593C43.3906 58.4721 29.448 74.9968 37.8441 88.7587C39.877 92.0987 39.877 92.0987 38.1614 93.078C37.2213 93.6163 35.9287 94.855 35.2942 95.8342C34.6596 96.807 33.8605 98.9926 33.5198 100.685C32.9028 103.766 32.9028 103.766 30.7818 100.504C16.1694 78.0709 41.1344 49.6196 62.0864 64.8278Z" stroke="white"/>
<path d="M45.8291 126.497C45.8291 123.222 45.8291 123.222 77.8505 123.222H109.872C109.872 130.654 109.678 131.322 108.156 133.002C106.435 134.895 106.435 134.895 77.8975 134.895C56.3991 134.895 49.1253 134.701 48.4202 134.104C46.8044 132.736 45.8291 129.882 45.8291 126.497ZM66.9809 127.113V131.004H88.7202V127.113H66.9809Z" stroke="white"/>
<path d="M77.8503 21.4014C106.282 21.4014 106.282 21.4014 107.792 22.8606C109.96 24.9489 109.789 25.0916 104.689 25.4224C101.546 25.6234 98.8904 26.259 96.264 27.4458C92.4273 29.1839 92.4273 29.1839 69.131 29.1839C45.8289 29.1839 45.8289 29.1839 46.0698 26.7713C46.6221 21.2328 45.6291 21.4014 77.8503 21.4014Z" stroke="white"/>
<path d="M95.1826 48.9482C95.1826 45.765 96.3282 42.7121 98.3675 40.4612C100.407 38.2103 103.172 36.9458 106.056 36.9458C108.94 36.9458 111.706 38.2103 113.745 40.4612C115.785 42.7121 116.93 45.765 116.93 48.9482C116.93 52.1315 115.785 55.1844 113.745 57.4353C111.706 59.6862 108.94 60.9507 106.056 60.9507C103.172 60.9507 100.407 59.6862 98.3675 57.4353C96.3282 55.1844 95.1826 52.1315 95.1826 48.9482Z" stroke="white"/>
<path d="M38.3037 80.2565C38.3037 77.0692 39.4508 74.0124 41.4926 71.7587C43.5344 69.5049 46.3037 68.2388 49.1913 68.2388C52.0788 68.2388 54.8481 69.5049 56.89 71.7587C58.9318 74.0124 60.0789 77.0692 60.0789 80.2565C60.0789 83.4437 58.9318 86.5005 56.89 88.7542C54.8481 91.008 52.0788 92.2742 49.1913 92.2742C46.3037 92.2742 43.5344 91.008 41.4926 88.7542C39.4508 86.5005 38.3037 83.4437 38.3037 80.2565Z" stroke="white"/>
<path d="M94.0078 72.0069C94.0078 65.0546 94.8774 64.5293 106.346 64.5293C117.95 64.5293 118.873 65.113 118.561 72.2209C118.391 76.2029 118.391 76.2029 115.453 77.8243C113.062 79.1408 111.505 79.4716 107.081 79.6077C103.285 79.718 100.894 79.4651 99.1489 78.7582C94.4191 76.832 94.0078 76.2937 94.0078 72.0069Z" stroke="white"/>
<path d="M37.0156 103.707C37.0156 96.7098 38.179 95.9834 49.4305 95.9834C61.0757 95.9834 61.6927 96.3596 61.6927 103.487C61.6927 107.806 61.6927 107.806 58.2203 109.356C56.3107 110.206 53.138 111.049 51.1697 111.224C49.2014 111.406 46.4693 111.243 45.0944 110.874C38.4492 109.071 37.0156 107.8 37.0156 103.707Z" stroke="white"/>
<path d="M76.9331 99.5241C79.9473 101.58 92.3915 95.8144 97.1331 90.1592C100.376 86.2875 100.376 86.2875 101.745 87.5456C104.912 90.464 93.0672 100.776 84.2422 102.786C81.8862 103.324 79.1541 103.765 78.167 103.765C77.1858 103.765 76.2751 103.545 76.1399 103.273C75.7698 102.501 76.4631 99.2063 76.9331 99.5241Z" fill="white" stroke="white"/>
<path d="M59.1365 44.3662C66.0285 38.0559 80.2883 34.0804 79.8065 38.6072C79.6185 40.3906 79.4598 40.4685 74.7947 41.1948C68.3552 42.1936 63.3786 44.9434 58.9485 49.9436C57.0684 52.0772 55.3233 53.8218 55.0825 53.8218C54.8416 53.8283 54.2129 53.3678 53.69 52.7971C52.4267 51.4417 53.9015 49.1653 59.1365 44.3662Z" fill="white" stroke="white"/>
<path d="M66.9805 127.113H88.7198V131.004H66.9805V127.113Z" fill="white" stroke="white"/>
</svg>
