<svg width="148" height="137" viewBox="0 0 148 137" fill="none" xmlns="http://www.w3.org/2000/svg">
<g filter="url(#filter0_d_94_253)">
<path d="M13.5062 120.935C13.1292 110.979 13.0712 110.798 9.76519 109.243C1.94969 105.558 3.02994 90.7179 11.7009 82.698C13.9267 80.6344 13.9267 80.6344 13.1654 69.8809C12.0634 54.3637 15.7102 37.875 20.8142 35.2888C23.2574 34.0493 23.1269 35.7578 20.2487 43.0809C17.0514 51.1812 17.0514 51.1812 20.5314 54.2297C22.3657 55.8377 23.6852 57.7673 24.2072 59.5897C24.9684 62.263 25.3019 62.5444 29.4634 64.0519C35.8434 66.3634 36.6627 66.149 33.4437 63.0067C26.8607 56.5881 33.4147 49.1377 42.5859 52.6217C45.7832 53.8411 45.7832 53.8411 50.8944 49.399C54.4542 46.3103 56.7959 44.8162 58.5939 44.5013C63.0164 43.7174 62.7119 45.4192 57.8617 48.5481C55.4982 50.0757 52.4097 52.5949 50.9959 54.1359C48.1177 57.2983 46.2834 57.64 41.2809 55.9583C37.5834 54.7121 35.0749 55.5161 35.0749 57.9415C35.0749 60.3602 38.1997 62.0888 44.7972 63.3082C50.0389 64.2864 50.7494 64.6147 53.1347 67.1942C58.0574 72.5207 59.0289 72.6212 63.4949 68.2796C73.0214 59.0001 85.6872 63.3886 85.3174 75.8439C85.1434 81.6059 86.1512 83.1871 89.2542 82.0213C90.9942 81.3647 91.0812 81.1101 90.7187 77.6797C90.4504 75.1337 90.7404 72.8222 91.6974 70.0149C92.6472 67.2009 93.0604 63.9581 93.0677 59.1877C93.0749 50.6117 93.4519 49.9283 99.0779 48.1327C102.761 46.9602 104.327 45.9552 107.633 42.6186C111.671 38.545 111.671 38.545 117.964 38.7326C123.162 38.8867 124.25 38.746 124.25 37.9085C124.25 35.6506 114.274 24.2606 109.206 20.7297C104.131 17.1988 104.131 17.1988 99.5129 19.9525C94.6844 22.8268 92.6979 24.7698 90.2764 28.9774C87.3837 33.9957 81.7867 31.9187 80.0612 25.1919C78.9012 20.6895 75.7837 17.7482 70.3027 15.966C67.8014 15.1553 65.0247 13.6746 63.8937 12.5557C62.1537 10.8204 61.5302 10.6194 58.9854 10.9276C50.4957 11.9594 44.0504 27.2153 51.0032 29.8149C52.6852 30.4447 52.8954 30.2705 54.4107 27.0679C56.8104 21.9826 58.1517 21.2456 63.9444 21.8285C71.6439 22.599 72.4269 23.1953 75.4139 30.505C78.5532 38.1631 78.2414 40.0257 73.5072 41.9285C68.6062 43.8916 66.5472 42.7325 70.2374 40.086C73.9422 37.4261 74.0582 36.6355 71.5642 31.0611C69.5414 26.5252 69.4617 26.4515 65.8874 25.614C60.8487 24.4281 59.7032 24.9708 57.4267 29.6005C52.5039 39.6036 41.1649 31.5904 44.9277 20.7699C45.7614 18.378 46.1674 16.301 45.8339 16.1603C44.6957 15.6913 36.9019 21.0245 31.8124 25.7614C26.8607 30.3643 26.7229 30.4447 26.0124 28.897C23.2574 22.8737 48.3569 8.43523 65.3872 6.25773C105.32 1.14563 136.488 29.8618 133.842 69.3248C133.08 80.6947 133.08 80.6947 136.205 83.8504C144.158 91.8703 144.818 105.666 137.409 109.156C133.863 110.831 133.675 111.32 133.675 118.697C133.675 128.479 134.414 128.151 112.396 128.178C91.0884 128.198 91.4292 128.312 90.3344 121.089C89.2977 114.201 86.3977 115.247 85.5857 122.804C85.0782 127.508 82.8814 128.426 72.5429 128.245C63.2049 128.084 61.1749 126.945 61.1749 121.853C61.1749 118.262 59.3769 115.783 57.8254 117.25C57.2454 117.806 56.7814 119.36 56.7959 120.707C56.8322 123.535 55.7592 125.92 53.8959 127.153C52.9679 127.769 47.7914 128.104 35.5027 128.325C18.6754 128.633 18.3637 128.613 16.0437 127.132C13.8034 125.699 13.6802 125.39 13.5062 120.935ZM23.4749 109.585C23.4749 97.4179 23.6997 94.0545 24.7147 91.073C25.3962 89.0697 25.9689 87.1736 25.9834 86.852C26.0052 86.3428 24.3812 85.8202 17.1819 84.0112C11.7662 82.6511 5.40069 100.446 9.58394 105.23C12.0707 108.064 13.3249 106.59 13.3249 100.835C13.3249 96.8082 13.5642 95.6826 14.4849 95.3543C16.5947 94.6106 16.9282 96.6809 16.9354 110.57C16.9427 118.958 17.2327 124.513 17.6749 124.808C18.0737 125.076 18.8059 125.283 19.3062 125.283C23.6272 125.236 23.4749 125.813 23.4749 109.585ZM31.0874 125.29C32.4214 125.29 31.3629 109.947 30.0072 109.545C27.4769 108.808 27.0999 109.753 27.0999 116.855C27.0999 122.195 27.3464 123.923 28.1874 124.519C28.7892 124.942 29.6012 125.29 29.9999 125.29H31.0874ZM42.3249 113.86C42.3249 103.321 42.5932 102.135 44.7972 102.912C45.7832 103.267 45.9499 104.835 45.9499 113.692C45.9499 124.064 45.9499 124.064 47.9944 124.781C52.2067 126.248 52.3227 125.846 52.6634 108.875C52.9317 95.1667 53.1347 93.0562 54.5122 89.7799C56.6582 84.6611 55.0487 82.6913 50.2854 84.6008C46.5952 86.0815 42.0857 86.0748 38.2069 84.5941C35.1547 83.4283 35.1547 83.4283 32.8709 85.4316C26.1284 91.3544 24.7582 106.53 30.9642 106.53C31.1454 106.53 31.4137 104.145 31.5587 101.224C31.8342 95.5821 32.1749 94.7379 33.9584 95.3744C34.9154 95.7094 35.0749 97.7395 35.0749 109.451C35.0749 120.694 35.2707 123.334 36.1624 124.211C36.7642 124.808 37.6559 125.283 38.1562 125.283C42.3467 125.236 42.3249 125.303 42.3249 113.86ZM70.7812 124.647C71.0784 124.633 71.3249 120.158 71.3249 114.697C71.3249 106.905 71.5569 104.5 72.4124 103.475C74.7759 100.654 75.6749 103.749 75.6749 114.684C75.6749 124.593 75.6749 124.593 77.4222 125.002C81.9172 126.04 82.1492 125.323 82.3667 109.699C82.5552 95.9841 82.6132 95.4749 84.0124 95.4749C85.3247 95.4749 85.4842 95.9841 85.6727 101.002C85.8902 106.778 86.3687 107.441 89.0222 105.652C91.4654 104.004 90.4287 92.8351 87.4417 88.5739C84.4692 84.3395 81.7432 83.033 79.2564 84.641C76.9509 86.1351 70.6797 86.1083 67.4172 84.5874C64.8942 83.4149 64.8942 83.4149 62.2044 85.7398C55.5852 91.4616 54.2584 106.53 60.3702 106.53C60.8052 106.53 61.2039 104.205 61.3272 101.002C61.5157 95.9841 61.6752 95.4749 62.9874 95.4749C64.3867 95.4749 64.4447 95.9841 64.6332 109.538C64.7927 120.955 65.0319 123.756 65.9019 124.446C66.4892 124.908 67.7072 125.149 68.6062 124.982C69.5052 124.814 70.4839 124.667 70.7812 124.647ZM101.05 113.612C101.05 104.828 101.217 103.26 102.203 102.912C104.399 102.135 104.675 103.314 104.675 113.578C104.675 124.895 105.081 125.893 109.293 124.915C111.678 124.365 111.925 122.777 111.925 107.79C111.925 95.8501 112.005 95.1399 113.288 95.1399C114.984 95.1399 115.528 96.8752 115.543 102.342C115.55 106.858 115.782 107.106 118.385 105.424C120.001 104.379 120.074 104.031 119.733 98.5435C119.153 89.1769 114.404 82.6511 109.387 84.3328C104.856 85.847 103.972 83.7968 107.901 80.8957C112.875 77.2308 112.316 71.0936 106.719 67.757C97.8744 62.4841 90.0154 73.7602 97.5699 80.8756C101.275 84.3596 100.695 86.0011 96.3229 84.4132C91.8859 82.8052 90.2619 85.0363 92.4152 89.7799C93.9159 93.0696 94.0464 94.4699 94.1624 108.694C94.2784 122.241 94.4307 124.131 95.4964 124.674C96.1562 125.015 97.0479 125.29 97.4757 125.29C100.76 125.29 101.05 124.352 101.05 113.612ZM119.9 116.928C119.9 109.753 119.53 108.801 116.993 109.545C115.666 109.94 115.55 110.57 115.55 117.632C115.55 122.603 115.818 125.29 116.326 125.29C119.385 125.29 119.9 124.077 119.9 116.928ZM130.064 110.644C130.072 96.6809 130.405 94.6106 132.515 95.3543C133.421 95.6759 133.675 96.768 133.689 100.312C133.704 106.664 136.169 108.694 138.119 103.957C141.476 95.7965 133.834 81.8337 127.527 84.6142C126.099 85.244 124.366 85.7666 123.684 85.7733C120.958 85.7934 120.676 86.6309 122.104 90.4566C123.293 93.6324 123.481 96.1985 123.503 109.243C123.518 122 123.692 124.419 124.612 124.821C125.214 125.076 126.164 125.29 126.729 125.29C130.035 125.29 130.05 125.23 130.064 110.644ZM59.5437 109.632C57.0352 109.009 56.8249 109.096 56.8249 110.738C56.8249 111.575 57.1512 112.48 57.5499 112.748C57.9487 113.016 58.9274 113.23 59.7249 113.23C61.8709 113.23 61.7187 110.168 59.5437 109.632ZM90.1749 110.738C90.1749 109.317 89.9212 109.116 88.5437 109.458C87.6447 109.679 86.6659 109.867 86.3687 109.873C86.0714 109.873 85.8249 110.637 85.8249 111.555C85.8249 112.553 86.2382 113.23 86.8544 113.23C89.0077 113.23 90.1749 112.359 90.1749 110.738ZM61.8492 78.1822C60.2107 73.988 56.8612 74.3632 55.6287 78.879C55.3967 79.7433 55.7084 80.9359 56.3899 81.7265C57.0279 82.4702 58.0067 83.0799 58.5577 83.0799C61.3054 83.0799 62.8642 80.7684 61.8492 78.1822ZM31.9792 74.1689C31.8124 68.6816 31.8124 68.6816 28.9487 67.4421C23.2429 64.9564 16.9499 68.8424 16.9499 74.8523C16.9499 77.472 17.3124 78.2358 19.4874 80.1587C21.5754 82.0146 22.5832 82.4099 25.1932 82.4099C30.8047 82.4099 32.1749 80.7483 31.9792 74.1689ZM34.813 74.8349C34.813 77.0506 35.7654 79.1755 37.4608 80.7422C39.1561 82.309 41.4555 83.1891 43.853 83.1891C46.2506 83.1891 48.5499 82.309 50.2453 80.7422C51.9406 79.1755 52.893 77.0506 52.893 74.8349C52.893 72.6192 51.9406 70.4943 50.2453 68.9276C48.5499 67.3609 46.2506 66.4807 43.853 66.4807C41.4555 66.4807 39.1561 67.3609 37.4608 68.9276C35.7654 70.4943 34.813 72.6192 34.813 74.8349ZM64.0682 74.855C64.0896 77.0665 65.0552 79.1807 66.755 80.7375C68.4547 82.2943 70.751 83.1678 73.1441 83.1678C75.5372 83.1678 77.8335 82.2943 79.5333 80.7375C81.233 79.1807 82.1986 77.0665 82.22 74.855C82.1986 72.6435 81.233 70.5293 79.5333 68.9725C77.8335 67.4157 75.5372 66.5422 73.1441 66.5422C70.751 66.5422 68.4547 67.4157 66.755 68.9725C65.0552 70.5293 64.0896 72.6435 64.0682 74.855ZM122.916 66.5845C117.717 65.6264 115.216 67.9982 114.977 74.0952C114.781 79.1939 114.883 79.6093 116.608 80.9627C117.913 81.9878 119.421 82.4099 121.785 82.4099C131.956 82.4099 132.957 68.4404 122.916 66.5845ZM18.8275 65.0636C21.9087 62.8191 20.9735 56.9499 17.5297 56.9499C16.3987 56.9499 16.2247 57.573 16.2247 61.6399C16.2247 64.2194 16.4205 66.3299 16.6525 66.3299C16.8917 66.3299 17.8705 65.7604 18.8275 65.0636ZM115.289 64.8492C118.964 62.8392 124.525 62.8325 127.925 64.8224C130.412 66.283 130.412 66.283 130.63 62.2697C130.854 58.0487 128.44 45.3254 127.135 43.8715C126.707 43.3891 123.488 42.7727 119.697 42.4511C113.019 41.8749 113.019 41.8749 109.96 45.6872C107.111 49.2315 106.545 49.5933 101.978 50.7658C97.0622 52.0388 97.0622 52.0388 96.852 58.1961C96.6417 64.3601 96.6417 64.3601 98.6645 63.8375C99.781 63.5494 102.108 63.3551 103.841 63.402C105.791 63.4556 107.799 64.0318 109.097 64.9095C110.257 65.6934 111.504 66.3299 111.881 66.3299C112.258 66.3299 113.788 65.6599 115.289 64.8492ZM88.5652 24.6224C90.443 20.6292 90.7257 20.3679 94.706 18.9274C103.493 15.7583 96.446 11.3698 79.4592 9.42683C68.113 8.13373 62.5232 10.3849 71.3537 12.6964C77.5815 14.3245 82.8305 18.7532 83.6787 23.0881C84.0412 24.944 84.5052 26.9942 84.7155 27.6374C84.9257 28.2806 85.4332 28.8099 85.8465 28.8099C86.2525 28.8099 87.4777 26.9272 88.5652 24.6224Z" fill="white" stroke="white"/>
</g>
<defs>
<filter id="filter0_d_94_253" x="-3" y="0" width="153" height="142" filterUnits="userSpaceOnUse" color-interpolation-filters="sRGB">
<feFlood flood-opacity="0" result="BackgroundImageFix"/>
<feColorMatrix in="SourceAlpha" type="matrix" values="0 0 0 0 0 0 0 0 0 0 0 0 0 0 0 0 0 0 127 0" result="hardAlpha"/>
<feOffset dy="4"/>
<feGaussianBlur stdDeviation="2"/>
<feComposite in2="hardAlpha" operator="out"/>
<feColorMatrix type="matrix" values="0 0 0 0 0 0 0 0 0 0 0 0 0 0 0 0 0 0 0.25 0"/>
<feBlend mode="normal" in2="BackgroundImageFix" result="effect1_dropShadow_94_253"/>
<feBlend mode="normal" in="SourceGraphic" in2="effect1_dropShadow_94_253" result="shape"/>
</filter>
</defs>
</svg>
