<svg width="129" height="124" viewBox="0 0 129 124" fill="none" xmlns="http://www.w3.org/2000/svg">
<path fill-rule="evenodd" clip-rule="evenodd" d="M45.1484 4.45228C41.8765 6.10972 38.5079 7.46596 37.6644 7.46596C34.1982 7.46596 33.4707 12.9373 36.6855 14.8268C37.1782 15.1157 37.8679 18.7983 38.2197 23.0106C38.926 31.4685 40.8451 36.5756 44.5268 39.7951C47.9193 42.7623 47.6366 43.461 41.8802 46.3206C33.4154 50.525 27.9003 58.1249 25.7417 68.5572C23.5639 79.0814 26.251 87.1418 31.9374 87.1418C33.8142 87.1418 34.0241 87.4578 33.5425 89.5496C32.4504 94.2872 32.5111 94.2434 27.8386 93.6542C22.945 93.0369 16.078 94.4264 13.5907 96.5365C10.049 99.5414 10.4708 107.213 14.4232 111.678C16.7291 114.284 16.7291 114.284 9.85289 114.284C2.02542 114.284 0.618315 115.152 1.07783 119.699C1.37067 122.602 1.37068 122.602 55.2421 122.602C109.114 122.602 109.114 122.602 109.42 120.543C110.243 115.016 109.271 114.284 101.108 114.284C93.5977 114.284 93.5977 114.284 95.4855 112.314C104.885 102.502 97.2333 91.5485 82.4513 93.6568C78.1324 94.2723 78.5247 94.605 76.8211 88.8929C76.3984 87.4771 76.7382 87.1418 78.5965 87.1418C84.9432 87.1418 87.3827 78.1866 84.2111 66.5311C81.4623 56.4272 76.682 50.1529 68.8251 46.3355C63.961 43.9715 63.2796 42.0164 66.3866 39.3424C69.3896 36.7595 71.1043 32.9342 72.0436 26.7282C73.6063 16.4037 73.3927 14.1929 70.3869 9.5708C64.5006 0.518402 56.2275 -1.16004 45.1484 4.45228ZM98.7979 6.06769C97.3512 7.22518 95.607 9.16804 94.9219 10.3851C93.7229 12.5153 93.4338 12.5783 87.2151 12.0828C79.6482 11.4795 78.2604 12.4531 78.2696 18.3588C78.288 31.3065 86.8974 38.1157 103.235 38.1052C119.825 38.0947 127.992 31.6156 127.992 18.4621C127.992 11.8289 127.097 11.2344 118.401 12.088C113.577 12.5617 113.577 12.5617 109.683 8.26271C105.216 3.33245 102.82 2.84914 98.7979 6.06769ZM61.5879 6.2358C63.9601 7.56752 68.1344 12.4925 68.1344 13.9582C68.1344 14.34 66.6933 13.4486 64.9307 11.9777C59.3437 7.31273 51.2299 7.23919 45.7635 11.8026C43.0101 14.1001 42.6233 14.1946 40.9482 12.9723C39.9463 12.2413 39.5503 11.4883 40.0679 11.2992C40.5845 11.11 43.8997 9.59794 47.4349 7.93788C54.6003 4.57224 57.9173 4.17386 61.5879 6.2358ZM107.473 11.9768C110.941 16.957 111.044 24.1357 107.717 28.7727C105.43 31.9597 105.43 31.9597 105.149 28.0302C104.752 22.4774 101.286 22.1412 101.286 27.6555C101.286 31.6594 100.224 31.5771 97.9507 27.3963C95.0821 22.1219 96.2139 14.9327 100.641 10.3115C103.312 7.52374 104.591 7.83544 107.473 11.9768ZM61.6883 14.4293C72.4009 21.5843 67.7136 39.8616 55.1666 39.8616C48.2812 39.8616 43.2707 33.9787 43.2707 25.8956C43.2707 15.0071 53.2512 8.7933 61.6883 14.4293ZM89.7152 16.1997C91.7596 16.9386 92.0773 17.5752 92.0773 20.9268C92.0773 23.5044 92.9678 26.4095 94.7423 29.6158C97.4073 34.4332 97.4073 34.4332 94.5121 33.6469C88.6875 32.0665 83.445 26.6013 82.3289 20.9461C81.2726 15.5911 83.7056 14.0274 89.7152 16.1997ZM124.308 18.4385C124.308 24.2592 119.79 30.987 114.639 32.837C108.288 35.1187 108.276 35.1126 111.064 31.1069C112.923 28.4365 113.721 26.0269 114.012 22.2025C114.45 16.4369 115.446 15.5106 121.315 15.4011C124.138 15.3495 124.308 15.522 124.308 18.4385ZM59.8465 45.3023C59.8465 47.6497 55.8407 49.1574 52.9399 47.901C48.6901 46.0597 49.9839 43.7009 55.2421 43.7009C59.0896 43.7009 59.8465 43.9636 59.8465 45.3023ZM47.8751 49.3518C47.8751 52.8759 60.3466 52.742 62.7731 49.1924C64.3349 46.9099 74.3706 54.4589 77.4804 60.256C79.9226 64.8063 82.2101 75.4706 81.5074 79.0297C80.5009 84.1298 77.695 84.3496 67.3996 80.1329C62.7132 78.2128 62.5447 78.0272 63.1221 75.4145C63.9923 71.4807 64.7207 71.1147 68.3766 72.7721C73.6008 75.1414 74.6607 74.1835 73.9949 67.6921C73.4129 62.0106 71.9036 59.3043 69.9559 60.4495C69.2082 60.8881 69.0212 62.3731 69.3896 64.9306C70.0204 69.3031 70.141 69.2191 65.9694 67.3279C63.2335 66.0872 62.7611 65.3929 62.3614 62.0202C61.0335 50.814 47.8751 51.9732 47.8751 63.2959C47.8751 65.4708 43.7505 68.755 41.0182 68.755C40.8267 68.755 40.7374 66.9251 40.8193 64.6889C41.1296 56.2337 37.4498 59.5153 36.505 68.5362C35.8502 74.7903 36.6597 75.3077 42.7679 72.5383C46.5509 70.8231 46.5988 70.8485 47.4073 74.9645C48.0215 78.0885 47.993 78.1226 43.116 80.1198C31.0957 85.0431 29.4575 84.5142 29.4575 75.707C29.4575 68.6999 31.7827 61.4196 35.5022 56.7835C39.5402 51.7499 47.8751 46.7435 47.8751 49.3518ZM52.9611 70.2671C52.6508 71.8431 51.9675 73.1328 51.4435 73.1328C50.8974 73.1328 50.704 72.1049 50.9904 70.725C51.2648 69.4003 51.8155 66.3473 52.2143 63.9395C52.9399 59.5617 52.9399 59.5617 53.2337 63.4816C53.3948 65.6381 53.2724 68.692 52.9611 70.2671ZM59.2479 67.6606C59.562 70.6708 59.4616 73.1328 59.0269 73.1328C57.9799 73.1328 57.0774 68.6447 57.1115 63.6111C57.1502 58.0662 58.5186 60.6605 59.2479 67.6606ZM57.851 79.0429C58.9422 80.4919 61.9028 82.2885 65.2843 83.5537C71.9432 86.0456 72.3152 86.4124 73.365 91.5108C74.5392 97.2098 69.5655 99.3996 55.4447 99.3996C41.3212 99.3996 36.4083 97.2772 37.2776 91.5502C37.9664 87.0192 39.4408 85.6297 46.1936 83.1518C48.7729 82.2054 51.6323 80.3825 52.6388 79.0429C53.6333 77.7181 54.8047 76.6351 55.2421 76.6351C55.6795 76.6351 56.8537 77.7181 57.851 79.0429ZM38.0871 100.522C46.0204 104.014 65.6287 104.11 72.0675 100.688C83.7747 94.4676 97.7002 97.7255 94.8243 106.012C92.8076 111.822 87.1524 114.294 76.0116 114.235C65.7844 114.181 56.175 111.763 60.8549 110.422C69.583 107.92 76.4546 106.432 79.3397 106.419C83.9192 106.399 85.6311 105.655 85.6311 103.684C85.6311 100.604 71.2995 102.342 59.4174 106.862C53.638 109.06 53.638 109.06 42.999 105.106C32.2036 101.092 23.0694 99.8111 21.5803 102.102C20.4937 103.774 22.8447 104.966 27.3671 105.039C30.3581 105.087 35.423 106.504 43.2385 109.478C54.7172 113.846 54.7172 113.846 40.183 114.088C24.3945 114.35 21.1254 113.572 17.3037 108.648C9.86487 99.0616 23.0537 93.9046 38.0871 100.522ZM80.3361 119.318C66.5339 119.454 43.9494 119.454 30.1482 119.318C16.346 119.182 27.6388 119.07 55.2421 119.07C82.8455 119.07 94.1373 119.182 80.3361 119.318Z" fill="#231F20" stroke="#231F20"/>
</svg>
