<svg width="129" height="129" viewBox="0 0 129 129" fill="none" xmlns="http://www.w3.org/2000/svg">
<path fill-rule="evenodd" clip-rule="evenodd" d="M45.1484 4.37549C41.8765 6.10463 38.5079 7.51956 37.6644 7.51956C34.1982 7.51956 33.4707 13.2277 36.6855 15.1989C37.1782 15.5003 37.8679 19.3423 38.2197 23.7368C38.926 32.5607 40.8451 37.8888 44.5268 41.2475C47.9193 44.3432 47.6366 45.0721 41.8802 48.0554C33.4154 52.4418 27.9003 60.3705 25.7417 71.2542C23.5639 82.2337 26.251 90.6429 31.9374 90.6429C33.8142 90.6429 34.0241 90.9726 33.5425 93.1549C32.4504 98.0975 32.5111 98.0518 27.8386 97.4371C22.945 96.7931 16.078 98.2427 13.5907 100.444C10.049 103.579 10.4708 111.583 14.4232 116.241C16.7291 118.96 16.7291 118.96 9.85289 118.96C2.02542 118.96 0.618315 119.865 1.07783 124.609C1.37067 127.637 1.37068 127.637 55.2421 127.637C109.114 127.637 109.114 127.637 109.42 125.489C110.243 119.723 109.271 118.96 101.108 118.96C93.5977 118.96 93.5977 118.96 95.4855 116.904C104.885 106.667 97.2333 95.2402 82.4513 97.4398C78.1324 98.082 78.5247 98.4291 76.8211 92.4698C76.3984 90.9927 76.7382 90.6429 78.5965 90.6429C84.9432 90.6429 87.3827 81.3002 84.2112 69.1404C81.4623 58.5993 76.682 52.0536 68.8251 48.071C63.961 45.6047 63.2796 43.5649 66.3866 40.7753C69.3896 38.0806 71.1043 34.0898 72.0436 27.6153C73.6063 16.844 73.3927 14.5375 70.3869 9.71548C64.5006 0.271386 56.2275 -1.47969 45.1484 4.37549ZM98.7979 6.06079C97.3512 7.26836 95.607 9.29529 94.9219 10.565C93.7229 12.7874 93.4338 12.8532 87.2151 12.3361C79.6482 11.7068 78.2604 12.7225 78.2696 18.8837C78.288 32.3917 86.8974 39.4955 103.235 39.4846C119.825 39.4736 127.992 32.7141 127.992 18.9915C127.992 12.0712 127.097 11.451 118.401 12.3416C113.577 12.8358 113.577 12.8358 109.683 8.35079C105.216 3.20719 102.82 2.70297 98.7979 6.06079ZM61.5879 6.23617C63.9601 7.62552 68.1344 12.7636 68.1344 14.2927C68.1344 14.691 66.6933 13.7611 64.9307 12.2265C59.3437 7.3597 51.2299 7.28298 45.7635 12.0438C43.0101 14.4407 42.6233 14.5394 40.9482 13.2642C39.9463 12.5015 39.5503 11.7159 40.0679 11.5186C40.5845 11.3213 43.8997 9.74379 47.4349 8.0119C54.6003 4.50063 57.9173 4.08501 61.5879 6.23617ZM107.473 12.2256C110.941 17.4213 111.044 24.9106 107.717 29.7482C105.43 33.0731 105.43 33.0731 105.149 28.9736C104.752 23.1805 101.286 22.8298 101.286 28.5826C101.286 32.7598 100.224 32.674 97.9507 28.3123C95.0821 22.8097 96.2139 15.3094 100.641 10.4882C103.312 7.57984 104.591 7.90503 107.473 12.2256ZM61.6883 14.7842C72.4009 22.2488 67.7136 41.317 55.1666 41.317C48.2812 41.317 43.2707 35.1795 43.2707 26.7466C43.2707 15.387 53.2512 8.90434 61.6883 14.7842ZM89.7152 16.6312C91.7596 17.4021 92.0773 18.0662 92.0773 21.5628C92.0773 24.252 92.9678 27.2828 94.7423 30.6278C97.4073 35.6536 97.4073 35.6536 94.5121 34.8333C88.6875 33.1846 83.445 27.4829 82.3289 21.5829C81.2726 15.9963 83.7056 14.3649 89.7152 16.6312ZM124.308 18.9668C124.308 25.0394 119.79 32.0583 114.639 33.9884C108.288 36.3688 108.276 36.3624 111.064 32.1834C112.923 29.3974 113.721 26.8836 114.012 22.8937C114.45 16.8787 115.446 15.9123 121.315 15.7981C124.138 15.7442 124.308 15.9241 124.308 18.9668ZM59.8465 46.9931C59.8465 49.442 55.8407 51.015 52.9399 49.7042C48.6901 47.7832 49.9839 45.3224 55.2421 45.3224C59.0896 45.3224 59.8465 45.5964 59.8465 46.9931ZM47.8751 51.2178C47.8751 54.8944 60.3466 54.7546 62.7731 51.0515C64.3349 48.6702 74.3706 56.5459 77.4804 62.5938C79.9226 67.341 82.2101 78.4667 81.5074 82.1798C80.5009 87.5006 77.695 87.7299 67.3996 83.3308C62.7132 81.3276 62.5447 81.1339 63.1221 78.4082C63.9923 74.3041 64.7207 73.9223 68.3766 75.6515C73.6008 78.1232 74.6607 77.1239 73.9949 70.3517C73.4129 64.4243 71.9036 61.6009 69.9559 62.7957C69.2082 63.2533 69.0212 64.8025 69.3896 67.4707C70.0204 72.0324 70.141 71.9447 65.9695 69.9717C63.2335 68.6773 62.7611 67.953 62.3614 64.4344C61.0335 52.7432 47.8751 53.9526 47.8751 65.7653C47.8751 68.0343 43.7505 71.4606 41.0182 71.4606C40.8267 71.4606 40.7374 69.5515 40.8193 67.2186C41.1296 58.3974 37.4498 61.821 36.505 71.2322C35.8502 77.757 36.6597 78.2968 42.7679 75.4076C46.5509 73.6181 46.5988 73.6446 47.4073 77.9387C48.0215 81.1979 47.993 81.2335 43.116 83.3171C31.0957 88.4534 29.4575 87.9016 29.4575 78.7133C29.4575 71.403 31.7827 63.8078 35.5022 58.9711C39.5402 53.7197 47.8751 48.4966 47.8751 51.2178ZM52.9611 73.0381C52.6508 74.6823 51.9675 76.0278 51.4435 76.0278C50.8974 76.0278 50.704 74.9554 50.9904 73.5158C51.2648 72.1338 51.8155 68.9486 52.2143 66.4366C52.9399 61.8694 52.9399 61.8694 53.2337 65.9589C53.3948 68.2087 53.2724 71.3948 52.9611 73.0381ZM59.2479 70.3188C59.562 73.4592 59.4616 76.0278 59.0269 76.0278C57.9799 76.0278 57.0774 71.3455 57.1115 66.0941C57.1502 60.3093 58.5186 63.0158 59.2479 70.3188ZM57.851 82.1935C58.9422 83.7053 61.9028 85.5797 65.2843 86.8996C71.9432 89.4993 72.3152 89.882 73.365 95.201C74.5392 101.147 69.5655 103.431 55.4447 103.431C41.3212 103.431 36.4083 101.217 37.2776 95.2421C37.9664 90.515 39.4408 89.0654 46.1936 86.4803C48.7729 85.4929 51.6323 83.5911 52.6388 82.1935C53.6334 80.8115 54.8047 79.6816 55.2421 79.6816C55.6795 79.6816 56.8537 80.8115 57.851 82.1935ZM38.0871 104.602C46.0204 108.245 65.6287 108.345 72.0675 104.776C83.7747 98.2857 97.7002 101.685 94.8243 110.329C92.8076 116.391 87.1524 118.97 76.0116 118.908C65.7843 118.852 56.175 116.33 60.8549 114.93C69.583 112.32 76.4546 110.768 79.3397 110.754C83.9192 110.733 85.6311 109.957 85.6311 107.901C85.6311 104.688 71.2995 106.501 59.4174 111.216C53.638 113.51 53.638 113.51 42.999 109.384C32.2036 105.197 23.0694 103.86 21.5803 106.251C20.4937 107.995 22.8447 109.239 27.3671 109.315C30.3581 109.365 35.423 110.843 43.2385 113.946C54.7172 118.503 54.7172 118.503 40.183 118.755C24.3945 119.028 21.1254 118.217 17.3037 113.08C9.86487 103.079 23.0537 97.6983 38.0871 104.602ZM80.3361 124.211C66.5339 124.354 43.9494 124.354 30.1482 124.211C16.346 124.069 27.6388 123.953 55.2421 123.953C82.8455 123.953 94.1373 124.069 80.3361 124.211Z" fill="white" stroke="white"/>
</svg>
