<svg width="129" height="124" viewBox="0 0 129 124" fill="none" xmlns="http://www.w3.org/2000/svg">
<path fill-rule="evenodd" clip-rule="evenodd" d="M45.1484 3.97047C41.8765 5.64722 38.5079 7.01927 37.6644 7.01927C34.1982 7.01927 33.4707 12.5544 36.6855 14.4659C37.1782 14.7582 37.8679 18.4837 38.2197 22.7451C38.926 31.3016 40.8451 36.4683 44.5268 39.7252C47.9193 42.7271 47.6366 43.4339 41.8802 46.3268C33.4154 50.5803 27.9003 58.2687 25.7417 68.8226C23.5639 79.4695 26.251 87.6238 31.9374 87.6238C33.8142 87.6238 34.0241 87.9436 33.5425 90.0597C32.4504 94.8526 32.5111 94.8083 27.8386 94.2122C22.945 93.5877 16.078 94.9934 13.5907 97.1281C10.049 100.168 10.4708 107.929 14.4232 112.446C16.7291 115.083 16.7291 115.083 9.85289 115.083C2.02542 115.083 0.618315 115.96 1.07783 120.561C1.37067 123.497 1.37068 123.497 55.2421 123.497C109.114 123.497 109.114 123.497 109.42 121.414C110.243 115.823 109.271 115.083 101.108 115.083C93.5977 115.083 93.5977 115.083 95.4855 113.09C104.885 103.163 97.2333 92.0819 82.4513 94.2148C78.1324 94.8375 78.5247 95.1741 76.8211 89.3954C76.3984 87.9631 76.7382 87.6238 78.5965 87.6238C84.9432 87.6238 87.3827 78.5642 84.2112 66.7729C81.4623 56.5512 76.682 50.2038 68.8251 46.3419C63.961 43.9503 63.2796 41.9724 66.3866 39.2673C69.3896 36.6543 71.1043 32.7844 72.0436 26.5061C73.6063 16.0612 73.3927 13.8246 70.3869 9.14865C64.5006 -0.00927055 56.2275 -1.70728 45.1484 3.97047ZM98.7979 5.6047C97.3512 6.77568 95.607 8.7412 94.9219 9.97241C93.7229 12.1275 93.4338 12.1912 87.2151 11.6899C79.6482 11.0796 78.2604 12.0646 78.2696 18.0391C78.288 31.1377 86.8974 38.0263 103.235 38.0157C119.825 38.0051 127.992 31.4504 127.992 18.1436C127.992 11.433 127.097 10.8316 118.401 11.6952C113.577 12.1744 113.577 12.1744 109.683 7.82531C105.216 2.83758 102.82 2.34863 98.7979 5.6047ZM61.5879 5.77477C63.9601 7.12202 68.1344 12.1044 68.1344 13.5872C68.1344 13.9734 66.6933 13.0717 64.9307 11.5836C59.3437 6.86426 51.2299 6.78986 45.7635 11.4065C43.0101 13.7307 42.6233 13.8264 40.9482 12.5898C39.9463 11.8502 39.5503 11.0885 40.0679 10.8971C40.5845 10.7058 43.8997 9.17611 47.4349 7.4967C54.6003 4.09182 57.9173 3.6888 61.5879 5.77477ZM107.473 11.5827C110.941 16.621 111.044 23.8833 107.717 28.5743C105.43 31.7985 105.43 31.7985 105.149 27.8232C104.752 22.2057 101.286 21.8656 101.286 27.4441C101.286 31.4947 100.224 31.4115 97.9507 27.1819C95.0821 21.8461 96.2139 14.5731 100.641 9.898C103.312 7.07773 104.591 7.39306 107.473 11.5827ZM61.6883 14.0638C72.4009 21.3022 67.7136 39.7926 55.1666 39.7926C48.2812 39.7926 43.2707 33.8411 43.2707 25.6637C43.2707 14.6484 53.2512 8.36209 61.6883 14.0638ZM89.7152 15.8548C91.7596 16.6024 92.0773 17.2463 92.0773 20.637C92.0773 23.2447 92.9678 26.1837 94.7423 29.4273C97.4073 34.3008 97.4073 34.3008 94.5121 33.5054C88.6875 31.9066 83.445 26.3777 82.3289 20.6565C81.2726 15.2392 83.7056 13.6572 89.7152 15.8548ZM124.308 18.1197C124.308 24.0082 119.79 30.8144 114.639 32.6861C108.288 34.9944 108.276 34.9882 111.064 30.9358C112.923 28.2342 113.721 25.7966 114.012 21.9276C114.45 16.0948 115.446 15.1577 121.315 15.047C124.138 14.9947 124.308 15.1692 124.308 18.1197ZM59.8465 45.2967C59.8465 47.6714 55.8407 49.1967 52.9399 47.9256C48.6901 46.0629 49.9839 43.6766 55.2421 43.6766C59.0896 43.6766 59.8465 43.9424 59.8465 45.2967ZM47.8751 49.3934C47.8751 52.9586 60.3466 52.823 62.7731 49.2321C64.3349 46.923 74.3706 54.56 77.4804 60.4247C79.9226 65.028 82.2101 75.8166 81.5074 79.4172C80.5009 84.5768 77.695 84.7991 67.3996 80.5333C62.7132 78.5908 62.5447 78.403 63.1221 75.7599C63.9923 71.7802 64.7207 71.4099 68.3766 73.0867C73.6008 75.4835 74.6607 74.5145 73.9949 67.9475C73.4129 62.1997 71.9036 59.4618 69.9559 60.6204C69.2082 61.0642 69.0212 62.5664 69.3896 65.1538C70.0204 69.5773 70.141 69.4922 65.9695 67.579C63.2335 66.3239 62.7611 65.6214 62.3614 62.2095C61.0335 50.8726 47.8751 52.0453 47.8751 63.5C47.8751 65.7003 43.7505 69.0228 41.0182 69.0228C40.8267 69.0228 40.7374 67.1715 40.8193 64.9093C41.1296 56.3555 37.4498 59.6753 36.505 68.8013C35.8502 75.1284 36.6597 75.6518 42.7679 72.8502C46.5509 71.115 46.5988 71.1406 47.4073 75.3046C48.0215 78.465 47.993 78.4996 43.116 80.52C31.0957 85.5007 29.4575 84.9657 29.4575 76.0558C29.4575 68.967 31.7827 61.6018 35.5022 56.9117C39.5402 51.8195 47.8751 46.7547 47.8751 49.3934ZM52.9611 70.5525C52.6508 72.1469 51.9675 73.4516 51.4435 73.4516C50.8974 73.4516 50.704 72.4117 50.9904 71.0157C51.2648 69.6756 51.8155 66.5869 52.2143 64.1511C52.9399 59.7223 52.9399 59.7223 53.2337 63.6878C53.3948 65.8695 53.2724 68.959 52.9611 70.5525ZM59.2479 67.9156C59.562 70.9608 59.4616 73.4516 59.0269 73.4516C57.9799 73.4516 57.0774 68.9112 57.1115 63.8189C57.1502 58.2094 58.5186 60.8339 59.2479 67.9156ZM57.851 79.4305C58.9422 80.8965 61.9028 82.714 65.2843 83.994C71.9432 86.5149 72.3152 86.886 73.365 92.0438C74.5392 97.8092 69.5655 100.025 55.4447 100.025C41.3212 100.025 36.4083 97.8774 37.2776 92.0837C37.9664 87.4998 39.4408 86.0941 46.1936 83.5874C48.7729 82.6299 51.6323 80.7857 52.6388 79.4305C53.6334 78.0903 54.8047 76.9947 55.2421 76.9947C55.6795 76.9947 56.8537 78.0903 57.851 79.4305ZM38.0871 101.16C46.0204 104.693 65.6287 104.79 72.0675 101.328C83.7747 95.035 97.7002 98.331 94.8243 106.714C92.8076 112.592 87.1524 115.092 76.0116 115.033C65.7843 114.978 56.175 112.532 60.8549 111.175C69.583 108.644 76.4546 107.139 79.3397 107.126C83.9192 107.105 85.6311 106.352 85.6311 104.359C85.6311 101.243 71.2995 103.002 59.4174 107.574C53.638 109.798 53.638 109.798 42.999 105.797C32.2036 101.737 23.0694 100.441 21.5803 102.759C20.4937 104.45 22.8447 105.656 27.3671 105.73C30.3581 105.778 35.423 107.212 43.2385 110.221C54.7172 114.64 54.7172 114.64 40.183 114.884C24.3945 115.149 21.1254 114.362 17.3037 109.381C9.86487 99.6826 23.0537 94.4655 38.0871 101.16ZM80.3361 120.175C66.5339 120.313 43.9494 120.313 30.1482 120.175C16.346 120.037 27.6388 119.924 55.2421 119.924C82.8455 119.924 94.1373 120.037 80.3361 120.175Z" fill="#FEC90F" stroke="#FEC90F"/>
</svg>
